<svg width="12" height="21" viewBox="0 0 12 21" fill="none" xmlns="http://www.w3.org/2000/svg">
<path opacity="0.399577" d="M9.81465 0.207809L0.206258 9.92087C0.0688248 10.0596 0 10.2193 0 10.3999C0 10.5805 0.0688248 10.7405 0.206258 10.8793L9.81465 20.5916C9.9523 20.7307 10.1102 20.8 10.289 20.8C10.4677 20.8 10.6258 20.7305 10.7632 20.5916L11.7938 19.5497C11.9312 19.4108 11.9999 19.2509 11.9999 19.0703C11.9999 18.8897 11.9312 18.7298 11.7938 18.5909L3.69069 10.3999L11.7943 2.20862C11.9318 2.06977 12 1.90983 12 1.72951C12 1.54862 11.9313 1.38874 11.7943 1.2499L10.7632 0.207882C10.6259 0.0690346 10.4677 4.95911e-05 10.2891 4.95911e-05C10.1102 -2.28882e-05 9.95208 0.0689621 9.81465 0.207809Z" fill="#5F6062"/>
</svg>
