<svg width="14" height="24" viewBox="0 0 14 24" fill="none" xmlns="http://www.w3.org/2000/svg">
<path d="M2.59863 23.3928L13.3388 12.5356C13.4924 12.3805 13.5693 12.202 13.5693 12.0002C13.5693 11.7983 13.4924 11.6195 13.3388 11.4643L2.59863 0.608048C2.44477 0.452519 2.26822 0.375 2.06843 0.374999C1.86871 0.374999 1.69192 0.452764 1.53838 0.608048L0.386345 1.77264C0.232724 1.92792 0.155954 2.10662 0.155954 2.3085C0.155954 2.51038 0.232724 2.68908 0.386345 2.84437L9.44393 12.0002L0.385779 21.1563C0.232158 21.3115 0.155872 21.4903 0.155872 21.6918C0.155872 21.894 0.232642 22.0727 0.385779 22.2279L1.5383 23.3927C1.69184 23.5479 1.86871 23.625 2.06835 23.625C2.26822 23.6251 2.44501 23.548 2.59863 23.3928Z" fill="white"/>
</svg>
