<svg width="185" height="57" viewBox="0 0 185 57" fill="none" xmlns="http://www.w3.org/2000/svg">
<path d="M23.8236 45.865C24.0716 45.8129 24.3463 45.7889 24.5915 45.6945C25.0283 45.5268 25.4496 45.3141 25.8765 45.121C25.9047 45.1083 25.9315 45.09 25.9568 45.0717C26.1033 44.9731 26.2893 45.059 26.4457 44.9576C26.581 44.8702 26.7501 44.8322 26.9079 44.7814C27.2038 44.6856 27.5025 44.594 27.8012 44.5081C27.897 44.4813 28.0027 44.4827 28.1027 44.4658C28.1633 44.4559 28.245 44.4531 28.276 44.4151C28.4535 44.1939 28.7255 44.1826 28.9594 44.1164C29.4004 43.9895 29.8583 43.9219 30.3064 43.8205C30.4754 43.7824 30.6403 43.7204 30.8066 43.6697C30.8967 43.6429 30.9897 43.5851 31.0771 43.595C31.4448 43.6359 31.7703 43.4161 32.1352 43.4386C32.2564 43.4457 32.3804 43.3667 32.5072 43.3527C32.8214 43.3174 33.137 43.3019 33.4512 43.2681C33.5611 43.2568 33.6781 43.2329 33.7739 43.1822C34.0219 43.0525 34.2642 42.9877 34.5545 43.0483C34.7362 43.0863 34.9377 43.0286 35.1307 43.0074C35.3576 42.9821 35.5746 42.8975 35.8113 42.9342C35.8986 42.9483 35.9959 42.906 36.0875 42.8905C36.2523 42.8623 36.4172 42.8243 36.582 42.8116C36.8399 42.7904 37.0949 42.8186 37.3443 42.6834C37.4894 42.6044 37.6895 42.6214 37.867 42.6115C38.2953 42.5861 38.7237 42.5749 39.152 42.5495C39.3338 42.5382 39.5141 42.534 39.6902 42.4523C39.8424 42.3818 40.0256 42.3424 40.1707 42.503C40.189 42.4607 40.2059 42.4227 40.2172 42.3959C40.3792 42.4044 40.5342 42.417 40.6878 42.417C40.7428 42.417 40.8076 42.3931 40.8512 42.3579C41.0189 42.224 41.1922 42.2085 41.3993 42.3156C41.591 42.0211 41.9474 42.1409 42.2109 42.0042C42.4589 42.1916 42.7914 42.1352 43.0521 42.3311C43.4889 42.6608 43.9637 42.9398 44.4315 43.247C44.6612 43.1173 44.9528 43.1807 45.1613 42.9891C45.4474 42.7242 45.8588 42.6425 46.1166 42.3367C46.3956 42.3057 46.4168 41.976 46.6408 41.8802C46.6563 41.8731 46.6647 41.8464 46.6732 41.8266C46.8282 41.4406 46.9282 41.0474 46.8141 40.6318C46.7817 40.512 46.7352 40.3964 46.6887 40.2626C46.3914 40.2302 46.273 40.0174 46.1815 39.7539C46.0885 39.4862 46.0335 39.203 45.8377 38.9705C45.7658 38.8845 45.6954 38.8324 45.6038 38.8098C45.3981 38.7619 45.2952 38.6267 45.2008 38.4477C44.9937 38.0532 44.7598 37.6741 44.5372 37.2867C44.4597 37.1514 44.3878 37.0119 44.3117 36.8752C44.161 36.6033 44.0187 36.3327 43.8101 36.0904C43.61 35.8579 43.4607 35.562 43.3578 35.2689C43.2493 34.9631 43.0169 34.7461 42.8802 34.4615C42.721 34.1304 42.5012 33.8274 42.311 33.5118C42.0869 33.1384 41.8615 32.765 41.6473 32.3845C41.6065 32.3127 41.6051 32.2112 41.6093 32.1253C41.6191 31.9167 41.6459 31.7096 41.6586 31.5011C41.6614 31.4405 41.6501 31.3714 41.6234 31.3179C41.4346 30.9586 41.2359 30.6049 41.0485 30.2442C40.8174 29.8017 40.6047 29.348 40.3623 28.9112C40.1693 28.5632 39.9382 28.2363 39.7339 27.8953C39.4986 27.5036 39.2746 27.1062 39.0449 26.7117C39.0196 26.668 38.99 26.6271 38.9604 26.5863C38.78 26.3326 38.5997 26.079 38.4193 25.8254C38.2939 25.6492 38.1629 25.4759 38.0417 25.297C37.7895 24.9264 37.5359 24.5572 37.295 24.1796C37.0921 23.8626 36.9075 23.5328 36.713 23.2102C36.5341 22.9143 36.4862 22.5789 36.4228 22.2492C36.3862 22.0618 36.3171 21.8983 36.2114 21.7335C36.0057 21.4094 35.7042 21.3756 35.3801 21.4193C35.2181 21.4404 35.0645 21.5263 34.9067 21.5827C34.887 21.5898 34.8588 21.594 34.8504 21.6081C34.639 21.9617 34.1614 21.9519 33.9317 22.2844C33.85 22.4042 33.7288 22.4972 33.6485 22.617C33.4766 22.8748 33.3216 23.1425 33.1568 23.406C33.1469 23.4229 33.1103 23.43 33.1088 23.4441C33.0708 23.7822 32.9792 24.1289 33.0173 24.46C33.0595 24.8278 33.3019 25.1335 33.5273 25.4323C33.6414 25.5844 33.7232 25.7634 33.8176 25.9311C33.8373 25.9677 33.8401 26.0198 33.8683 26.0452C34.1388 26.2974 34.2205 26.6595 34.4065 26.9597C34.5221 27.1457 34.6658 27.3148 34.7757 27.5036C34.9814 27.8558 35.1716 28.218 35.3703 28.573C35.583 28.9521 35.7662 29.3523 36.024 29.6975C36.1819 29.9102 36.3199 30.1188 36.4228 30.3597C36.4622 30.4513 36.5426 30.5415 36.6285 30.5936C36.7821 30.6852 36.837 30.8289 36.868 30.9811C36.9343 31.3108 37.2132 31.5123 37.3443 31.8026C37.3978 31.921 37.5119 32.0111 37.588 32.1225C37.7684 32.3845 37.9952 32.6311 38.1065 32.9214C38.2812 33.3751 38.6335 33.7006 38.8575 34.1135C38.866 34.129 38.8589 34.1543 38.8589 34.1896C38.494 34.322 38.1784 34.1445 37.8628 34.0106C37.5556 33.881 37.2668 33.7091 36.9596 33.5851C36.3932 33.3554 35.8423 33.0961 35.2928 32.8298C34.8419 32.6128 34.3896 32.3986 33.9402 32.1788C33.5456 31.9872 33.1286 31.8181 32.7791 31.5588C32.5269 31.3714 32.2592 31.2376 31.9817 31.1333C31.5364 30.967 31.1334 30.7233 30.7192 30.5035C30.1753 30.2146 29.6639 29.8637 29.1341 29.5481C28.8833 29.3988 28.6212 29.2677 28.3676 29.124C28.2859 29.0775 28.2182 29.0099 28.1379 28.9619C28.0337 28.8999 27.9209 28.8492 27.8153 28.79C27.5955 28.6689 27.3757 28.5449 27.1573 28.4209C26.8572 28.2504 26.5556 28.0785 26.2583 27.9037C25.9963 27.7502 25.7412 27.5853 25.4778 27.4345C25.1157 27.2274 24.7465 27.0315 24.383 26.8258C24.1463 26.692 23.9152 26.5482 23.6827 26.4073C23.2614 26.1537 22.8401 25.8987 22.4202 25.6422C22.1709 25.49 21.9243 25.3308 21.6735 25.18C21.4128 25.0236 21.1437 24.8785 20.8845 24.7207C20.473 24.4699 20.0644 24.2134 19.6586 23.9527C19.6065 23.9189 19.5825 23.8386 19.5389 23.7696C19.3036 23.8034 19.1232 23.6878 18.9654 23.523C18.9386 23.4948 18.9203 23.4483 18.8879 23.4398C18.5286 23.3313 18.2313 23.127 17.9622 22.872C17.9171 22.8297 17.8594 22.7973 17.8002 22.7762C17.2915 22.593 16.8561 22.2774 16.3968 22.0068C16.1488 21.8617 15.9375 21.6574 15.6726 21.532C15.4838 21.4418 15.3161 21.3065 15.1259 21.2206C14.5891 20.981 14.141 20.6048 13.6535 20.2906C13.3027 20.0652 12.9448 19.8496 12.5982 19.6199C12.4432 19.517 12.3079 19.3846 12.1586 19.2719C12.0853 19.2169 11.9965 19.1803 11.919 19.1295C11.7204 18.9971 11.5203 18.866 11.3273 18.7265C11.0906 18.5575 10.8609 18.3785 10.6256 18.2066C10.3058 17.9727 9.98874 17.7318 9.66044 17.5091C9.45473 17.3696 9.22083 17.2696 9.01512 17.1287C8.68964 16.9046 8.35149 16.6876 8.06828 16.4171C7.91188 16.2677 7.66672 16.1874 7.60895 15.9394C7.60472 15.9239 7.57936 15.9084 7.56104 15.9028C7.1623 15.7548 6.91714 15.4181 6.62688 15.1391C6.36904 14.8911 6.10133 14.653 5.86462 14.3881C5.3278 13.7864 4.73038 13.234 4.31755 12.5281C4.04561 12.0631 3.75395 11.608 3.47216 11.1486C3.46088 11.1303 3.44397 11.1148 3.43975 11.0951C3.36084 10.7893 3.35803 10.7921 3.196 10.5878C3.15091 10.5315 3.10863 10.4638 3.09032 10.3948C2.97901 9.99321 2.82543 9.60572 2.73244 9.19427C2.66058 8.87441 2.58167 8.54751 2.49573 8.22625C2.43514 8.00503 2.39991 7.77394 2.3816 7.54567C2.35624 7.20327 2.3196 6.85664 2.35483 6.51847C2.42105 5.88862 2.29705 5.2475 2.48445 4.62611C2.50418 4.55988 2.48868 4.48097 2.48445 4.4077C2.46895 4.07798 2.65212 3.79476 2.70425 3.48054C2.7268 3.34809 2.76061 3.21846 2.7888 3.08741C2.79302 3.06628 2.78739 3.03528 2.79866 3.02682C3.09877 2.80983 2.9297 2.4477 3.06355 2.17575C3.26503 1.76713 3.36648 1.31905 3.59051 0.914648C3.79763 0.542656 3.93994 0.135439 4.12733 -0.247826C4.25978 -0.518364 4.41477 -0.779041 4.57117 -1.03831C4.78674 -1.39621 5.00795 -1.7527 5.23762 -2.10215C5.35879 -2.28532 5.50956 -2.44877 5.63918 -2.62632C5.9083 -2.99408 6.16473 -3.3703 6.4409 -3.73243C6.58039 -3.9156 6.74805 -4.07765 6.90586 -4.24532C7.11862 -4.47218 7.3342 -4.69481 7.54977 -4.91885C7.64417 -5.01608 7.73717 -5.11471 7.8358 -5.20771C7.93865 -5.30634 8.02601 -5.41202 8.10773 -5.53179C8.25849 -5.75302 8.44448 -5.95451 8.64174 -6.13628C8.90522 -6.38005 9.16166 -6.63509 9.48713 -6.81263C9.61817 -6.88449 9.68862 -7.0578 9.80134 -7.17194C9.92533 -7.29875 10.0634 -7.4143 10.1987 -7.52984C10.3565 -7.6637 10.5284 -7.76656 10.6608 -7.94551C10.7904 -8.12164 11.0187 -8.22732 11.2075 -8.35836C11.5767 -8.61481 11.943 -8.87549 12.322 -9.11503C12.4925 -9.22212 12.632 -9.38557 12.8574 -9.40952C12.9222 -9.41657 12.9673 -9.53916 13.0364 -9.58706C13.1111 -9.6392 13.2153 -9.65047 13.2844 -9.70824C13.4112 -9.81392 13.5718 -9.87028 13.693 -9.96187C13.9804 -10.1789 14.2904 -10.3212 14.6187 -10.455C14.861 -10.5551 15.0738 -10.7214 15.3316 -10.8115C15.5881 -10.9003 15.8163 -11.068 16.0643 -11.1878C16.3813 -11.3399 16.7054 -11.4752 17.0238 -11.6217C17.0886 -11.6513 17.1563 -11.688 17.207 -11.7359C17.2915 -11.8162 17.3324 -11.9486 17.4986 -11.912C17.5325 -11.905 17.5931 -12.0121 17.6381 -12.0628C17.9129 -12.0642 18.182 -12.0628 18.4159 -12.2361C18.4497 -12.2615 18.4878 -12.2967 18.5244 -12.2953C18.8823 -12.2882 19.1415 -12.5066 19.429 -12.6687C19.5445 -12.7335 19.6896 -12.7532 19.8249 -12.7701C20.1011 -12.8068 20.3152 -13.0548 20.6182 -12.9998C20.6463 -12.9942 20.683 -13.0435 20.7182 -13.0618C20.8182 -13.1139 20.9154 -13.1745 21.0211 -13.2098C21.4171 -13.3436 21.8087 -13.4986 22.2131 -13.5916C22.7063 -13.7057 23.1459 -13.9523 23.6263 -14.089C23.8152 -14.1425 24.0124 -14.1679 24.2012 -14.2229C24.3266 -14.2595 24.4422 -14.33 24.5647 -14.3779C24.6521 -14.4117 24.7451 -14.4568 24.8353 -14.4568C25.1593 -14.4568 25.4397 -14.6005 25.7342 -14.6991C25.892 -14.7527 26.0569 -14.7935 26.2217 -14.8231C26.4993 -14.871 26.7599 -14.9598 27.0206 -15.0683C27.27 -15.1726 27.5462 -15.2134 27.811 -15.2782C28.2366 -15.3811 28.6607 -15.4952 29.0904 -15.577C29.5821 -15.6714 30.0443 -15.8827 30.5487 -15.9278C30.7319 -15.9433 30.9108 -16.0194 31.0855 -16.0856C31.2138 -16.1335 31.3321 -16.2054 31.4772 -16.1434C31.5026 -16.1321 31.5491 -16.1645 31.5829 -16.18C31.6942 -16.2322 31.7999 -16.3111 31.9168 -16.3365C32.3029 -16.4224 32.6946 -16.4844 33.0807 -16.5675C33.1976 -16.5929 33.3146 -16.6408 33.4188 -16.6986C33.571 -16.7845 33.733 -16.8395 33.8739 -16.9607C34.0684 -17.1269 34.2135 -17.3242 34.3671 -17.5201C34.3924 -17.5525 34.415 -17.5919 34.4248 -17.6328C34.4939 -17.9202 34.5333 -18.2175 34.6306 -18.4951C34.725 -18.7628 34.7137 -19.0108 34.6024 -19.256C34.4981 -19.4843 34.4192 -19.7337 34.167 -19.8619C34.0951 -19.8985 34.0486 -19.9859 33.9754 -20.024C33.8683 -20.0789 33.7471 -20.1494 33.6372 -20.1409C33.378 -20.1212 33.1229 -20.0423 32.8623 -20.0169C32.5692 -19.9887 32.355 -19.8056 32.1085 -19.6844C31.9591 -19.6111 31.8238 -19.4998 31.6674 -19.4505C31.194 -19.2997 30.6882 -19.2264 30.2416 -19.0193C29.8358 -18.8319 29.406 -18.7628 28.9946 -18.6163C28.5339 -18.4529 28.0449 -18.3655 27.5715 -18.2387C27.2179 -18.1443 26.8656 -18.0456 26.5162 -17.9385C26.1188 -17.8174 25.7243 -17.6863 25.3284 -17.5609C24.9325 -17.4355 24.5366 -17.3045 24.1378 -17.1903C24.0321 -17.1593 23.9124 -17.1791 23.7729 -17.1734C23.7391 -17.0353 23.6108 -16.9339 23.4502 -16.9339C23.1515 -16.9339 22.9233 -16.7409 22.6485 -16.6789C22.4935 -16.6436 22.3399 -16.5915 22.192 -16.5295C21.8468 -16.3858 21.5058 -16.2336 21.1634 -16.0842C21.1437 -16.0758 21.124 -16.0546 21.1071 -16.0575C20.752 -16.1265 20.5026 -15.8757 20.2039 -15.7714C20.056 -15.7193 19.9277 -15.5572 19.7389 -15.6587C19.7263 -15.6657 19.6769 -15.6376 19.6713 -15.6178C19.6276 -15.4614 19.4656 -15.4445 19.3684 -15.4276C18.8062 -15.3332 18.3553 -14.9964 17.8523 -14.7752C17.5564 -14.6456 17.238 -14.5681 16.9365 -14.4539C16.549 -14.3074 16.1601 -14.1609 15.7839 -13.9876C15.4345 -13.8269 15.102 -13.6254 14.7582 -13.4507C14.4707 -13.3042 14.1875 -13.1337 13.8818 -13.0364C13.5493 -12.9308 13.2618 -12.78 12.9941 -12.5559C12.8476 -12.4334 12.6334 -12.3939 12.4601 -12.2981C12.1797 -12.1417 11.9148 -11.9543 11.6302 -11.8063C11.3695 -11.6711 11.1681 -11.4301 10.8623 -11.378C10.8327 -11.3723 10.7919 -11.3597 10.7778 -11.3371C10.5298 -10.9299 10.0592 -10.8045 9.72948 -10.503C9.5759 -10.3635 9.42373 -10.2225 9.2631 -10.0915C8.96722 -9.84633 8.66428 -9.60961 8.36699 -9.36584C8.1655 -9.20098 7.95415 -9.04317 7.77662 -8.85576C7.51173 -8.57677 7.28629 -8.26678 6.95236 -8.04978C6.8326 -7.97228 6.76497 -7.8046 6.59589 -7.7722C6.60152 -7.53266 6.33522 -7.48757 6.2535 -7.29171C6.17741 -7.10853 5.98439 -6.97608 5.85053 -6.81404C5.48419 -6.36877 5.12349 -5.92069 4.75998 -5.47261C4.74025 -5.44866 4.72757 -5.41766 4.70643 -5.39371C4.53313 -5.18939 4.35418 -4.99072 4.18792 -4.78077C4.01321 -4.55954 3.84413 -4.33128 3.68773 -4.09737C3.50879 -3.83106 3.34675 -3.55348 3.17627 -3.28153C3.08327 -3.13217 2.98887 -2.98563 2.89588 -2.83627C2.83529 -2.73904 2.7423 -2.64604 2.72257 -2.54036C2.69439 -2.39382 2.61267 -2.29942 2.52109 -2.20078C2.49291 -2.16978 2.45064 -2.14301 2.43937 -2.10778C2.29424 -1.63998 1.98003 -1.25953 1.78841 -0.817085C1.75459 -0.739588 1.71937 -0.663498 1.68415 -0.587408C1.55734 -0.304188 1.42067 -0.0251961 1.30795 0.26366C1.20791 0.520109 1.13746 0.78924 1.04588 1.04992C0.995152 1.19364 0.923294 1.32891 0.866936 1.46981C0.840164 1.53604 0.821846 1.60649 0.803528 1.67695C0.678127 2.17153 0.540047 2.6647 0.432964 3.1635C0.345604 3.57072 0.2822 3.98357 0.230068 4.39643C0.153984 4.98682 0.0948067 5.57863 0.0356293 6.17184C0.0229492 6.30429 0.0468979 6.44097 0.0454903 6.57624C0.0440826 6.76224 0.0356293 6.94682 0.0257683 7.13282C0.0243568 7.17368 -0.0122795 7.22441 0.00181198 7.25259C0.163845 7.58654 0.0539436 7.96557 0.190617 8.30797C0.248386 8.45311 0.214569 8.63488 0.23148 8.79833C0.246979 8.95332 0.238522 9.12241 0.300518 9.25909C0.410419 9.50286 0.442825 9.73535 0.401966 10.0017C0.38224 10.1341 0.449871 10.3187 0.542862 10.4216C0.726032 10.6231 0.720398 10.8739 0.79789 11.1021C0.892292 11.3868 0.989513 11.6728 1.10646 11.9504C1.18114 12.1293 1.19523 12.1251 1.1276 12.3534C1.11914 12.3801 1.13323 12.4126 1.14028 12.4731C1.18818 12.4281 1.222 12.3971 1.27977 12.3435C1.43053 12.5901 1.56297 12.8296 1.50521 13.1509C1.71233 13.2016 1.82645 13.3665 1.94904 13.5299C2.0223 13.6286 2.13643 13.6934 2.22802 13.7793C2.35765 13.9019 2.48023 14.0288 2.39851 14.2542C2.5704 14.2753 2.62254 14.405 2.71271 14.5318C2.88884 14.7798 2.97196 15.0926 3.26503 15.2744C3.43411 15.3786 3.51302 15.6196 3.65392 15.7802C3.86526 16.0212 4.09916 16.2424 4.31896 16.4777C4.45422 16.6214 4.57539 16.7792 4.71066 16.923C4.84592 17.0653 5.02345 17.1766 5.12772 17.3372C5.35738 17.6937 5.66314 17.953 6.01397 18.1784C6.12247 18.2475 6.18305 18.3884 6.27323 18.4884C6.32677 18.549 6.38876 18.6265 6.46062 18.6448C6.70438 18.7054 6.85796 18.852 7.00449 19.052C7.12989 19.2225 7.34124 19.3282 7.49623 19.4804C7.74703 19.727 8.06828 19.8608 8.34867 20.0581C8.56284 20.2075 8.75446 20.3892 8.95594 20.5555C9.00385 20.595 9.04471 20.6555 9.09966 20.6753C9.51672 20.8232 9.81402 21.1445 10.162 21.3911C10.5847 21.6898 11.0032 21.997 11.4287 22.2929C11.6852 22.4704 11.9529 22.6296 12.2107 22.8044C12.3319 22.8861 12.4319 23.0073 12.5615 23.0693C12.6982 23.1341 12.8701 23.0989 12.9997 23.2158C13.1378 23.3412 13.2886 23.4525 13.4365 23.5638C13.5281 23.6315 13.6211 23.6977 13.7226 23.7512C13.8339 23.809 13.9607 23.84 13.9931 23.9908C14.0001 24.0204 14.048 24.0486 14.0833 24.0626C14.2862 24.1416 14.4623 24.2895 14.6553 24.3557C15.1259 24.5192 15.4796 24.8489 15.8783 25.1138C16.0347 25.2181 16.2756 25.2449 16.2883 25.4928C16.6293 25.5985 17.0182 25.5816 17.1943 25.9818C17.6212 26.072 17.9721 26.3496 18.3511 26.5665C18.7808 26.8131 19.1894 27.0963 19.6051 27.3655C19.7685 27.4712 19.9277 27.5839 20.0912 27.6896C20.3265 27.8417 20.5618 27.9981 20.8041 28.1376C20.9169 28.2025 21.0578 28.2208 21.1719 28.2856C21.3057 28.3617 21.4241 28.4688 21.5509 28.559C21.6171 28.6054 21.689 28.6435 21.7608 28.6815C21.7876 28.6956 21.8355 28.6886 21.8496 28.7083C22.1201 29.0718 22.6527 29.0338 22.9176 29.4072C23.3643 29.5721 23.6771 29.9765 24.1491 30.1005C24.1885 30.1103 24.2223 30.1413 24.259 30.1625C24.5943 30.3597 24.9325 30.55 25.2622 30.7571C25.6032 30.9713 25.9385 31.1883 26.3062 31.3602C26.5542 31.4757 26.7613 31.68 26.9868 31.8435C27.0206 31.8674 27.0516 31.9125 27.0868 31.9139C27.4574 31.9351 27.7054 32.2056 27.997 32.3747C28.3338 32.5691 28.6381 32.8199 28.958 33.0454C29.0002 33.075 29.0524 33.0933 29.0946 33.1243C29.2581 33.2441 29.4821 33.1807 29.6498 33.3526C29.7766 33.4822 30.0077 33.509 30.1908 33.5879C30.2571 33.6161 30.336 33.6499 30.3712 33.7048C30.4416 33.8147 30.5388 33.8542 30.6558 33.8739C30.6769 33.8767 30.7037 33.8781 30.715 33.8922C30.9644 34.1726 31.3786 34.1895 31.6308 34.453C31.7872 34.6151 32.0014 34.5728 32.1747 34.6714C32.6566 34.9448 33.1497 35.197 33.6414 35.4507C33.7584 35.5112 33.9049 35.5211 34.0148 35.5901C34.1698 35.6874 34.36 35.6958 34.5052 35.841C34.5996 35.9368 34.7898 35.934 34.9349 35.9819C35.1885 36.0664 35.4421 36.1552 35.6943 36.2454C35.7338 36.2595 35.7887 36.2764 35.8014 36.306C35.9198 36.5962 36.179 36.5596 36.4045 36.5497C36.6905 36.537 36.9385 36.6272 37.1935 36.7343C37.5133 36.8682 37.8515 36.9555 38.1995 36.8978C38.3489 36.8738 38.5194 36.9668 38.6476 36.8301C38.8575 36.6075 39.0816 36.3961 39.1605 36.0791C39.2055 35.8987 39.2647 35.7198 39.3479 35.5549C39.3887 35.4746 39.5014 35.4309 39.5817 35.3717C39.7198 35.5507 39.8509 35.6986 39.9565 35.8635C40.0974 36.0833 40.2172 36.3144 40.3581 36.5638C40.3384 36.5892 40.3017 36.6343 40.2651 36.6808C40.4229 36.8273 40.6723 36.8766 40.6793 37.1753C40.6822 37.2909 40.8512 37.3966 40.9231 37.5191C41.0274 37.6967 41.1119 37.8855 41.2091 38.0687C41.2373 38.1208 41.2852 38.1631 41.3134 38.2152C41.3669 38.3153 41.4163 38.4167 41.4627 38.521C41.4952 38.5929 41.5163 38.6689 41.5445 38.7422C41.56 38.7817 41.6065 38.8352 41.5938 38.8535C41.4811 39.0226 41.6516 39.0818 41.7347 39.1776C41.4557 39.396 41.133 39.4059 40.8259 39.4355C40.4835 39.4693 40.1369 39.4524 39.7917 39.4566C39.7607 39.4566 39.7226 39.451 39.6987 39.4651C39.3563 39.6694 38.9604 39.5595 38.5955 39.6581C38.1854 39.7694 37.7501 39.7807 37.3245 39.8399C37.2217 39.854 37.1216 39.8878 37.0202 39.9103C36.7553 39.9681 36.4975 40.0724 36.2143 40.023C36.1368 40.009 36.0508 40.0526 35.9677 40.0667C35.6281 40.1217 35.2886 40.1837 34.9462 40.2245C34.8292 40.2386 34.7052 40.1935 34.5855 40.1738C34.5009 40.1597 34.4206 40.1344 34.3741 40.2457C34.3572 40.2851 34.3051 40.3302 34.2628 40.3373C33.9542 40.3866 33.6443 40.4542 33.3329 40.4641C32.9975 40.4739 32.6805 40.5585 32.355 40.6191C32.0183 40.6811 31.6717 40.6839 31.3363 40.7487C31.1024 40.7938 30.8798 40.8981 30.653 40.977C30.5952 40.9967 30.5346 41.0474 30.4811 41.0404C30.2303 41.0122 30.0232 41.1334 29.8019 41.2123C29.723 41.2405 29.6413 41.2785 29.5596 41.2842C29.0707 41.3123 28.6381 41.5378 28.1774 41.6646C28.0858 41.69 27.9956 41.7196 27.9026 41.7351C27.6871 41.7717 27.487 41.8421 27.2841 41.9281C26.9586 42.0648 26.612 42.1535 26.2752 42.262C26.1949 42.2874 26.1118 42.3071 26.0371 42.3438C25.6525 42.5284 25.2749 42.7256 24.886 42.9003C24.707 42.9807 24.5126 43.0243 24.321 43.0737C23.7729 43.2132 23.4502 43.5866 23.2586 44.091C23.1853 44.2826 23.1402 44.4855 23.0909 44.687C23.0275 44.9449 23.198 45.369 23.4051 45.5212C23.5376 45.61 23.6658 45.7311 23.8236 45.865Z" fill="url(#paint0_linear)"/>
<path d="M53.3188 18.2204H57.4108V29.7121H57.5131C57.7177 29.4393 57.9791 29.1665 58.2974 28.8937C58.6157 28.5982 59.0021 28.3254 59.4568 28.0753C59.9115 27.8252 60.4343 27.6206 61.0254 27.4615C61.6165 27.3024 62.2985 27.2228 63.0714 27.2228C64.2308 27.2228 65.2993 27.4501 66.2768 27.9048C67.2543 28.3367 68.0841 28.9392 68.7661 29.7121C69.4708 30.485 70.0164 31.3944 70.4029 32.4401C70.7894 33.4858 70.9826 34.6111 70.9826 35.816C70.9826 37.0209 70.8007 38.1462 70.437 39.1919C70.0733 40.2376 69.539 41.147 68.8343 41.9199C68.1296 42.6928 67.2771 43.3066 66.2768 43.7613C65.2765 44.1932 64.1512 44.4092 62.9009 44.4092C61.7415 44.4092 60.6617 44.1819 59.6614 43.7272C58.6611 43.2725 57.8655 42.5451 57.2744 41.5448H57.2062V44H53.3188V18.2204ZM66.8906 35.816C66.8906 35.1795 66.7769 34.5657 66.5496 33.9746C66.345 33.3835 66.0267 32.8607 65.5948 32.406C65.1856 31.9513 64.6855 31.5876 64.0944 31.3148C63.5033 31.042 62.8327 30.9056 62.0825 30.9056C61.3323 30.9056 60.6617 31.042 60.0706 31.3148C59.4795 31.5876 58.968 31.9513 58.5361 32.406C58.1269 32.8607 57.8086 33.3835 57.5813 33.9746C57.3767 34.5657 57.2744 35.1795 57.2744 35.816C57.2744 36.4525 57.3767 37.0663 57.5813 37.6574C57.8086 38.2485 58.1269 38.7713 58.5361 39.226C58.968 39.6807 59.4795 40.0444 60.0706 40.3172C60.6617 40.59 61.3323 40.7264 62.0825 40.7264C62.8327 40.7264 63.5033 40.59 64.0944 40.3172C64.6855 40.0444 65.1856 39.6807 65.5948 39.226C66.0267 38.7713 66.345 38.2485 66.5496 37.6574C66.7769 37.0663 66.8906 36.4525 66.8906 35.816ZM85.366 18.2204H89.458V44H85.366V18.2204ZM104.757 27.632H108.849V44H104.757V27.632ZM104.178 22.0737C104.178 21.4144 104.416 20.8461 104.894 20.3687C105.394 19.8686 106.019 19.6185 106.769 19.6185C107.519 19.6185 108.145 19.8572 108.645 20.3346C109.168 20.7893 109.429 21.369 109.429 22.0737C109.429 22.7784 109.168 23.3695 108.645 23.8469C108.145 24.3016 107.519 24.5289 106.769 24.5289C106.019 24.5289 105.394 24.2902 104.894 23.8128C104.416 23.3127 104.178 22.733 104.178 22.0737ZM124.047 27.632H127.935V30.2577H128.003C128.389 29.4393 128.98 28.7346 129.776 28.1435C130.572 27.5297 131.651 27.2228 133.015 27.2228C134.107 27.2228 135.027 27.4047 135.778 27.7684C136.55 28.1321 137.176 28.6095 137.653 29.2006C138.13 29.7917 138.471 30.4737 138.676 31.2466C138.881 32.0195 138.983 32.8266 138.983 33.6677V44H134.891V35.7137C134.891 35.259 134.868 34.7589 134.823 34.2133C134.777 33.645 134.652 33.1221 134.448 32.6447C134.266 32.1446 133.97 31.7354 133.561 31.4171C133.152 31.0761 132.595 30.9056 131.89 30.9056C131.208 30.9056 130.628 31.0193 130.151 31.2466C129.696 31.4739 129.31 31.7808 128.992 32.1673C128.696 32.5538 128.48 32.9971 128.344 33.4972C128.207 33.9973 128.139 34.5202 128.139 35.0658V44H124.047V27.632ZM154.128 18.2204H158.22V34.4179L164.528 27.632H169.78L162.755 35.0658L170.223 44H164.801L158.288 35.6455H158.22V44H154.128V18.2204Z" fill="#969696"/>
<defs>
<linearGradient id="paint0_linear" x1="17.6128" y1="15.7816" x2="45.7234" y2="41.3547" gradientUnits="userSpaceOnUse">
<stop stop-color="#4AD5F6"/>
<stop offset="1" stop-color="#39D3BC"/>
</linearGradient>
</defs>
</svg>
