<?xml version="1.0" encoding="utf-8"?>
<!-- Generator: Adobe Illustrator 24.0.3, SVG Export Plug-In . SVG Version: 6.00 Build 0)  -->
<svg version="1.1" id="Layer_1" xmlns="http://www.w3.org/2000/svg" xmlns:xlink="http://www.w3.org/1999/xlink" x="0px" y="0px"
	 viewBox="0 0 63 64" style="enable-background:new 0 0 63 64;" xml:space="preserve">
<style type="text/css">
	.st0{fill-rule:evenodd;clip-rule:evenodd;fill:#FFFFFF;filter:url(#Adobe_OpacityMaskFilter);}
	.st1{mask:url(#mask0_1_);}
	.st2{fill:none;stroke:#002D36;stroke-width:0.672;}
	.st3{stroke:#002D36;stroke-width:0.672;}
</style>
<defs>
	<filter id="Adobe_OpacityMaskFilter" filterUnits="userSpaceOnUse" x="16.1" y="17.5" width="31.5" height="50">
		<feColorMatrix  type="matrix" values="1 0 0 0 0  0 1 0 0 0  0 0 1 0 0  0 0 0 1 0"/>
	</filter>
</defs>
<mask maskUnits="userSpaceOnUse" x="16.1" y="17.5" width="31.5" height="50" id="mask0_1_">
	<path class="st0" d="M9,4h46l-1.3,55.2c0,0-5.2,4.2-7.7,4.8c-5.5,2-10,2.9-14,3c-6,0.2-10.4-1.7-12.9-2.4c-7.3-2.1-6.4-6.8-6.4-6.8
		L9,4z"/>
</mask>
<g class="st1">
	<path class="st2" d="M16.4,19.6c0-1,0.8-1.8,1.8-1.8h27.3c1,0,1.8,0.8,1.8,1.8v45.8c0,1-0.8,1.8-1.8,1.8H18.2c-1,0-1.8-0.8-1.8-1.8
		V19.6z"/>
</g>
<rect x="36.4" y="27.1" class="st3" width="3.1" height="3.1"/>
<rect x="36.4" y="36.4" class="st3" width="3.1" height="3.1"/>
<rect x="36.4" y="45.6" class="st3" width="3.1" height="3.1"/>
<rect x="24.1" y="27.1" class="st3" width="3.1" height="3.1"/>
<rect x="24.1" y="36.4" class="st3" width="3.1" height="3.1"/>
<rect x="24.1" y="45.6" class="st3" width="3.1" height="3.1"/>
</svg>
