<?xml version="1.0" encoding="utf-8"?>
<!-- Generator: Adobe Illustrator 24.0.3, SVG Export Plug-In . SVG Version: 6.00 Build 0)  -->
<svg version="1.1" id="Layer_1" xmlns="http://www.w3.org/2000/svg" xmlns:xlink="http://www.w3.org/1999/xlink" x="0px" y="0px"
	 viewBox="0 0 64 64" style="enable-background:new 0 0 64 64;" xml:space="preserve">
<style type="text/css">
	.st0{stroke:#000000;stroke-width:0.672;}
	.st1{fill-rule:evenodd;clip-rule:evenodd;fill:#002D36;}
</style>
<rect x="36.3" y="25.5" class="st0" width="3.1" height="3.1"/>
<rect x="36.3" y="34.8" class="st0" width="3.1" height="3.1"/>
<rect x="36.3" y="44" class="st0" width="3.1" height="3.1"/>
<rect x="24.3" y="25.3" class="st0" width="3.1" height="3.1"/>
<rect x="24" y="34.8" class="st0" width="3.1" height="3.1"/>
<rect x="24" y="44" class="st0" width="3.1" height="3.1"/>
<path class="st1" d="M17.2,58.8V18.4c0-0.6,0.5-1.2,1.2-1.2h27.3c0.6,0,1.2,0.5,1.2,1.2v40.8c0.4-0.2,0.8-0.4,1.2-0.7V18.4
	c0-1.3-1.1-2.4-2.4-2.4H18.4c-1.3,0-2.4,1.1-2.4,2.4V58C16.4,58.3,16.8,58.5,17.2,58.8z"/>
</svg>
