<svg width="23" height="23" viewBox="0 0 23 23" fill="none" xmlns="http://www.w3.org/2000/svg">
<path fill-rule="evenodd" clip-rule="evenodd" d="M11.5 21.2031C16.8589 21.2031 21.2031 16.8589 21.2031 11.5C21.2031 6.14111 16.8589 1.79688 11.5 1.79688C6.14111 1.79688 1.79688 6.14111 1.79688 11.5C1.79688 16.8589 6.14111 21.2031 11.5 21.2031ZM11.5 23C17.8513 23 23 17.8513 23 11.5C23 5.14872 17.8513 0 11.5 0C5.14872 0 0 5.14872 0 11.5C0 17.8513 5.14872 23 11.5 23ZM10.12 5.74885C10.0886 4.96504 10.7156 4.3125 11.5 4.3125C12.2844 4.3125 12.9114 4.96504 12.88 5.74885L12.6212 12.2196C12.5971 12.8214 12.1023 13.2969 11.5 13.2969C10.8977 13.2969 10.4029 12.8214 10.3788 12.2196L10.12 5.74885ZM11.4642 15.0938C10.5711 15.0938 9.84702 15.8178 9.84702 16.7109C9.84702 17.6041 10.5711 18.3281 11.4642 18.3281C12.3574 18.3281 13.0814 17.6041 13.0814 16.7109C13.0814 15.8178 12.3574 15.0938 11.4642 15.0938Z" fill="white"/>
</svg>
