<svg width="24" height="24" viewBox="0 0 24 24" fill="none" xmlns="http://www.w3.org/2000/svg">
<path fill-rule="evenodd" clip-rule="evenodd" d="M12 24C18.6274 24 24 18.6274 24 12C24 5.37258 18.6274 0 12 0C5.37258 0 0 5.37258 0 12C0 18.6274 5.37258 24 12 24Z" fill="#D8D8D8"/>
<mask id="mask0" mask-type="alpha" maskUnits="userSpaceOnUse" x="0" y="0" width="24" height="24">
<path fill-rule="evenodd" clip-rule="evenodd" d="M12 24C18.6274 24 24 18.6274 24 12C24 5.37258 18.6274 0 12 0C5.37258 0 0 5.37258 0 12C0 18.6274 5.37258 24 12 24Z" fill="white"/>
</mask>
<g mask="url(#mask0)">
<rect x="-11.5059" y="-8.99524" width="54.3554" height="40.8163" rx="6.03542" fill="white"/>
<rect x="-9.71387" y="-7.8291" width="54.1544" height="38.8125" rx="6.03542" fill="white"/>
<mask id="mask1" mask-type="alpha" maskUnits="userSpaceOnUse" x="-10" y="-8" width="55" height="39">
<rect x="-9.71387" y="-7.8291" width="54.1544" height="38.8125" rx="6.03542" fill="white"/>
</mask>
<g mask="url(#mask1)">
<rect x="-9.71387" y="-7.8291" width="54.1544" height="38.8125" fill="#0A17A7"/>
<rect x="-0.910156" y="0.14209" width="35.0223" height="24.5029" rx="4.57229" fill="white"/>
<mask id="mask2" mask-type="alpha" maskUnits="userSpaceOnUse" x="-1" y="0" width="36" height="25">
<rect x="-0.910156" y="0.14209" width="35.0223" height="24.5029" rx="4.57229" fill="white"/>
</mask>
<g mask="url(#mask2)">
<path fill-rule="evenodd" clip-rule="evenodd" d="M-0.910156 8.30971H34.1121V0.14209H-0.910156V8.30971Z" fill="#262626"/>
<g filter="url(#filter0_d)">
<path fill-rule="evenodd" clip-rule="evenodd" d="M-0.910156 16.4773H34.1121V8.30969H-0.910156V16.4773Z" fill="#F01515"/>
</g>
<g filter="url(#filter1_d)">
<path fill-rule="evenodd" clip-rule="evenodd" d="M-0.910156 24.6449H34.1121V16.4773H-0.910156V24.6449Z" fill="#FFD521"/>
</g>
</g>
</g>
<path opacity="0.290458" fill-rule="evenodd" clip-rule="evenodd" d="M-13.2243 39.1837C1.65356 39.1837 13.7145 27.1228 13.7145 12.2449C13.7145 -2.63295 1.65356 -14.6938 -13.2243 -14.6938C-28.1022 -14.6938 -40.1631 -2.63295 -40.1631 12.2449C-40.1631 27.1228 -28.1022 39.1837 -13.2243 39.1837Z" fill="#E5E5E5"/>
</g>
<defs>
<filter id="filter0_d" x="-0.910156" y="8.30969" width="35.0223" height="8.16762" filterUnits="userSpaceOnUse" color-interpolation-filters="sRGB">
<feFlood flood-opacity="0" result="BackgroundImageFix"/>
<feColorMatrix in="SourceAlpha" type="matrix" values="0 0 0 0 0 0 0 0 0 0 0 0 0 0 0 0 0 0 127 0"/>
<feOffset/>
<feColorMatrix type="matrix" values="0 0 0 0 0 0 0 0 0 0 0 0 0 0 0 0 0 0 0.06 0"/>
<feBlend mode="normal" in2="BackgroundImageFix" result="effect1_dropShadow"/>
<feBlend mode="normal" in="SourceGraphic" in2="effect1_dropShadow" result="shape"/>
</filter>
<filter id="filter1_d" x="-0.910156" y="16.4773" width="35.0223" height="8.16762" filterUnits="userSpaceOnUse" color-interpolation-filters="sRGB">
<feFlood flood-opacity="0" result="BackgroundImageFix"/>
<feColorMatrix in="SourceAlpha" type="matrix" values="0 0 0 0 0 0 0 0 0 0 0 0 0 0 0 0 0 0 127 0"/>
<feOffset/>
<feColorMatrix type="matrix" values="0 0 0 0 0 0 0 0 0 0 0 0 0 0 0 0 0 0 0.06 0"/>
<feBlend mode="normal" in2="BackgroundImageFix" result="effect1_dropShadow"/>
<feBlend mode="normal" in="SourceGraphic" in2="effect1_dropShadow" result="shape"/>
</filter>
</defs>
</svg>
