<?xml version="1.0" encoding="UTF-8"?>
<svg width="42px" height="42px" viewBox="0 0 42 42" version="1.1" xmlns="http://www.w3.org/2000/svg" xmlns:xlink="http://www.w3.org/1999/xlink">
    <!-- Generator: Sketch 62 (91390) - https://sketch.com -->
    <title>Ireland</title>
    <desc>Created with Sketch.</desc>
    <defs>
        <path d="M20.58,41.16 C31.946,41.16 41.16,31.946 41.16,20.58 C41.16,9.214 31.946,0 20.58,0 C9.214,0 0,9.214 0,20.58 C0,31.946 9.214,41.16 20.58,41.16 Z" id="path-1"></path>
        <rect id="path-3" x="0.50574" y="0.78552" width="72.9886" height="43.4206" rx="3.25987"></rect>
    </defs>
    <g id="Page-1" stroke="none" stroke-width="1" fill="none" fill-rule="evenodd">
        <g id="Ireland">
            <path d="M20.58,41.16 C31.946,41.16 41.16,31.946 41.16,20.58 C41.16,9.214 31.946,0 20.58,0 C9.214,0 0,9.214 0,20.58 C0,31.946 9.214,41.16 20.58,41.16 Z" id="Path" fill="#D8D8D8"></path>
            <g id="Clipped">
                <mask id="mask-2" fill="white">
                    <use xlink:href="#path-1"></use>
                </mask>
                <g id="Path"></g>
                <g id="Group" mask="url(#mask-2)">
                    <g transform="translate(-69.000000, -26.000000)">
                        <rect id="Rectangle" stroke="none" fill="#FFFFFF" fill-rule="nonzero" x="60.6001" y="25.15967" width="56.8996" height="42.84" rx="3.38688"></rect>
                        <rect id="Rectangle" stroke="#F5F5F5" stroke-width="0.931392" fill="#FFFFFF" fill-rule="nonzero" x="53.50574" y="24.78552" width="72.9886" height="43.4206" rx="3.25987"></rect>
                        <g id="Clipped" stroke="none" stroke-width="1" fill="none" fill-rule="evenodd" transform="translate(53.000000, 24.000000)">
                            <mask id="mask-4" fill="white">
                                <use xlink:href="#path-3"></use>
                            </mask>
                            <g id="Rectangle"></g>
                            <g id="Group" mask="url(#mask-4)">
                                <g transform="translate(0.000000, -3.000000)">
                                    <rect id="Rectangle" fill="#FF8515" fill-rule="nonzero" x="45.4" y="3.31982" width="24.948" height="44.352"></rect>
                                    <polygon id="Path" fill="#07BB59" fill-rule="evenodd" points="0.04004 50.136 27.76 50.136 27.76 0.85596 0.04004 0.85596"></polygon>
                                </g>
                            </g>
                        </g>
                        <path d="M46.32,93.1998 C71.8356,93.1998 92.52,72.5154 92.52,46.9998 C92.52,21.48425 71.8356,0.7998 46.32,0.7998 C20.8044,0.7998 0.12,21.48425 0.12,46.9998 C0.12,72.5154 20.8044,93.1998 46.32,93.1998 Z" id="Path" stroke="none" fill="#E5E5E5" fill-rule="evenodd" opacity="0.290458"></path>
                    </g>
                </g>
            </g>
        </g>
    </g>
</svg>