<?xml version="1.0" encoding="UTF-8"?>
<svg width="42px" height="42px" viewBox="0 0 42 42" version="1.1" xmlns="http://www.w3.org/2000/svg" xmlns:xlink="http://www.w3.org/1999/xlink">
    <!-- Generator: Sketch 62 (91390) - https://sketch.com -->
    <title>Switzerland</title>
    <desc>Created with Sketch.</desc>
    <defs>
        <path d="M20.58,41.16 C31.946,41.16 41.16,31.946 41.16,20.58 C41.16,9.214 31.946,0 20.58,0 C9.214,0 0,9.214 0,20.58 C0,31.946 9.214,41.16 20.58,41.16 Z" id="path-1"></path>
        <rect id="path-3" x="0.23175" y="0.43183" width="57.1739" height="40.5918" rx="3.02279"></rect>
        <rect id="path-5" x="0.589478" y="0.67041" width="63" height="44" rx="2"></rect>
    </defs>
    <g id="Page-1" stroke="none" stroke-width="1" fill="none" fill-rule="evenodd">
        <g id="Switzerland">
            <path d="M20.58,41.16 C31.946,41.16 41.16,31.946 41.16,20.58 C41.16,9.214 31.946,0 20.58,0 C9.214,0 0,9.214 0,20.58 C0,31.946 9.214,41.16 20.58,41.16 Z" id="Path" fill="#D8D8D8"></path>
            <g id="Clipped">
                <mask id="mask-2" fill="white">
                    <use xlink:href="#path-1"></use>
                </mask>
                <g id="Path"></g>
                <g id="Group" mask="url(#mask-2)">
                    <g transform="translate(-69.000000, -26.000000)">
                        <rect id="Rectangle" stroke="none" fill="#FFFFFF" fill-rule="nonzero" x="60.59998" y="25.16016" width="56.8996" height="42.84" rx="3.38688"></rect>
                        <rect id="Rectangle" stroke="#F5F5F5" stroke-width="0.863654" fill="#FFFFFF" fill-rule="nonzero" x="65.23175" y="26.43183" width="57.1739" height="40.5918" rx="3.02279"></rect>
                        <g id="Clipped" stroke="none" stroke-width="1" fill="none" fill-rule="evenodd" transform="translate(65.000000, 26.000000)">
                            <mask id="mask-4" fill="white">
                                <use xlink:href="#path-3"></use>
                            </mask>
                            <g id="Rectangle"></g>
                            <g id="Group" mask="url(#mask-4)">
                                <g transform="translate(-1.000000, 0.000000)" id="Path">
                                    <polygon fill="#E03D52" points="0.79993 13.8185 58.8375 13.8185 58.8375 0 0.79993 0"></polygon>
                                    <polygon fill="#5A9165" points="0.79993 41.4552 58.8375 41.4552 58.8375 27.6367 0.79993 27.6367"></polygon>
                                </g>
                            </g>
                        </g>
                        <rect id="Rectangle" stroke="none" fill="#FFFFFF" fill-rule="nonzero" x="57.589478" y="25.67041" width="63" height="44" rx="2"></rect>
                        <g id="Clipped" stroke="none" stroke-width="1" fill="none" fill-rule="evenodd" transform="translate(57.000000, 25.000000)">
                            <mask id="mask-6" fill="white">
                                <use xlink:href="#path-5"></use>
                            </mask>
                            <g id="Rectangle"></g>
                            <g id="Group" mask="url(#mask-6)">
                                <rect id="Rectangle" fill="#FF0000" fill-rule="nonzero" x="0.589478" y="0.67041" width="63" height="44"></rect>
                                <path d="M28.5895,26.6704 L19.9228,26.6704 C19.7387,26.6704 19.5895,26.5212 19.5895,26.3371 L19.5895,18.0037 C19.5895,17.8196 19.7387,17.6704 19.9228,17.6704 L28.5895,17.6704 L28.5895,9.0037 C28.5895,8.8196 28.7387,8.6704 28.9228,8.6704 L37.2561,8.6704 C37.4402,8.6704 37.5895,8.8196 37.5895,9.0037 L37.5895,17.6704 L46.2561,17.6704 C46.4402,17.6704 46.5895,17.8196 46.5895,18.0037 L46.5895,26.3371 C46.5895,26.5212 46.4402,26.6704 46.2561,26.6704 L37.5895,26.6704 L37.5895,35.3371 C37.5895,35.5212 37.4402,35.6704 37.2561,35.6704 L28.9228,35.6704 C28.7387,35.6704 28.5895,35.5212 28.5895,35.3371 L28.5895,26.6704 Z" id="Path" fill="#FFFFFF"></path>
                            </g>
                        </g>
                        <path d="M46.32,93.1998 C71.8356,93.1998 92.52,72.5154 92.52,46.9998 C92.52,21.48425 71.8356,0.7998 46.32,0.7998 C20.8044,0.7998 0.12,21.48425 0.12,46.9998 C0.12,72.5154 20.8044,93.1998 46.32,93.1998 Z" id="Path" stroke="none" fill="#E5E5E5" fill-rule="evenodd" opacity="0.290458"></path>
                    </g>
                </g>
            </g>
        </g>
    </g>
</svg>