<svg xmlns="http://www.w3.org/2000/svg" data-name="Layer 2" viewBox="0 0 32 32"><path d="M10.59 12H7a1 1 0 0 0 0 2h6a1 1 0 0 0 1-1V7a1 1 0 0 0-2 0v3.59L3.71 2.29A1 1 0 0 0 2.29 3.71zM3 30a1 1 0 0 0 .71-.29L12 21.41V25a1 1 0 0 0 2 0V19a1 1 0 0 0-1-1H7a1 1 0 0 0 0 2h3.59L2.29 28.29A1 1 0 0 0 3 30zM21.41 20H25a1 1 0 0 0 0-2H19a1 1 0 0 0-1 1v6a1 1 0 0 0 2 0V21.41l8.29 8.29a1 1 0 0 0 1.41-1.41zM28.29 2.29L20 10.59V7a1 1 0 0 0-2 0v6a1 1 0 0 0 1 1h6a1 1 0 0 0 0-2H21.41l8.29-8.29a1 1 0 0 0-1.41-1.41z"/></svg>