<?xml version="1.0" encoding="UTF-8"?>
<svg width="20px" height="20px" viewBox="0 0 20 20" version="1.1" xmlns="http://www.w3.org/2000/svg" xmlns:xlink="http://www.w3.org/1999/xlink">
    <!-- Generator: Sketch 62 (91390) - https://sketch.com -->
    <title>zoom (2)</title>
    <desc>Created with Sketch.</desc>
    <g id="-" stroke="none" stroke-width="1" fill="none" fill-rule="evenodd">
        <g id="Ownership-structure-Copy-4" transform="translate(-44.000000, -149.000000)" fill="#000000" fill-rule="nonzero">
            <g id="zoom-(2)" transform="translate(44.000000, 149.000000)">
                <path d="M18,7 L18,3.41 L11.41,10 L18,16.59 L18,13 C18,12.4477153 18.4477153,12 19,12 C19.5522847,12 20,12.4477153 20,13 L20,19 C20,19.5522847 19.5522847,20 19,20 L13,20 C12.4477153,20 12,19.5522847 12,19 C12,18.4477153 12.4477153,18 13,18 L16.59,18 L10,11.41 L3.41,18 L7,18 C7.55228475,18 8,18.4477153 8,19 C8,19.5522847 7.55228475,20 7,20 L1,20 C0.44771525,20 0,19.5522847 0,19 L0,13 C0,12.4477153 0.44771525,12 1,12 C1.55228475,12 2,12.4477153 2,13 L2,16.59 L8.59,10 L2,3.41 L2,7 C2,7.55228475 1.55228475,8 1,8 C0.44771525,8 0,7.55228475 0,7 L0,1 C0,0.44771525 0.44771525,0 1,0 L7,0 C7.55228475,0 8,0.44771525 8,1 C8,1.55228475 7.55228475,2 7,2 L3.41,2 L10,8.59 L16.59,2 L13,2 C12.4477153,2 12,1.55228475 12,1 C12,0.44771525 12.4477153,0 13,0 L19,0 C19.5522847,0 20,0.44771525 20,1 L20,7 C20,7.55228475 19.5522847,8 19,8 C18.4477153,8 18,7.55228475 18,7 Z" id="Path"></path>
            </g>
        </g>
    </g>
</svg>