<svg width="151" height="134" viewBox="0 0 151 134" fill="none" xmlns="http://www.w3.org/2000/svg">
<path d="M32.204 105.493C22.9543 105.493 15.1097 105.259 7.3821 105.61C2.58165 105.727 0.942468 104.088 0.942468 99.1703C0.825384 68.3772 0.474128 37.584 0.00579075 6.79089C-0.111293 1.75627 1.52788 0 6.67959 0C52.2253 0.117084 97.8882 0.234168 143.434 0C149.171 0 149.874 3.16128 149.874 7.37631C149.874 29.0369 149.757 50.6975 149.757 72.241C149.757 81.2564 149.757 90.1548 150.225 99.1703C150.459 103.971 148.937 106.195 144.136 106.078C134.77 106.078 125.403 106.195 116.153 106.078C101.401 105.961 86.531 105.493 71.7784 105.493C70.1392 105.493 68.1488 106.664 66.7438 107.835C57.4941 115.562 48.3616 123.407 38.9948 131.134C37.7069 132.188 35.7165 132.422 33.9602 133.008C33.3748 131.251 32.321 129.612 32.204 127.856C32.0869 120.714 32.204 113.455 32.204 105.493ZM37.4727 123.992C40.2828 122.002 41.8049 121.182 43.0928 120.128C50.1178 114.04 57.1429 107.717 64.285 101.746C65.8071 100.458 67.9146 99.1703 69.6709 99.1703C87.936 99.5216 106.318 100.224 124.583 100.575C130.906 100.692 137.346 100.575 143.668 100.575C143.668 68.3772 143.668 37.4669 143.668 6.08838C97.5369 6.08838 51.8741 6.08838 6.91375 6.08838C6.91375 37.584 6.91375 68.2601 6.91375 99.2874C15.4609 99.2874 23.0714 99.4045 30.6819 99.2874C35.7165 99.1703 38.1752 100.927 37.5898 106.547C37.0044 111.932 37.4727 117.318 37.4727 123.992Z" fill="white"/>
<path d="M95.919 62.4207C92.1975 62.5115 88.839 59.153 88.7482 55.2499C88.6575 51.0745 91.4713 48.0791 95.556 47.9883C99.9129 47.8068 102.999 50.8022 102.999 55.0683C102.908 58.7899 99.5498 62.3299 95.919 62.4207Z" fill="white"/>
<path d="M81.7589 55.8852C81.6681 59.8791 79.3081 62.3299 75.3142 62.3299C70.8665 62.3299 67.8711 59.4252 67.8711 55.1591C67.9619 50.9836 70.8665 48.2606 75.1327 48.3513C79.0358 48.4421 81.7589 51.5283 81.7589 55.8852Z" fill="white"/>
<path d="M61.1541 55.4316C61.0633 59.1532 57.7956 62.3301 54.074 62.2394C50.2617 62.1486 46.9032 58.6086 46.994 54.7963C47.0848 50.9839 50.3525 47.8978 54.074 47.9885C57.8864 48.0793 61.2448 51.6193 61.1541 55.4316Z" fill="white"/>
</svg>
