<svg width="139" height="156" viewBox="0 0 139 156" fill="none" xmlns="http://www.w3.org/2000/svg">
<path d="M55.5859 5.00785C57.8084 3.49163 59.8954 2.05663 61.9823 0.648709C63.4459 -0.326007 63.988 -0.19063 64.8282 1.35267C65.3974 2.38154 65.7769 3.89776 66.6171 4.24974C67.4031 4.60172 68.7312 3.70823 69.8424 3.38333C74.0706 2.08371 78.4071 3.81653 80.8194 7.90492C83.8821 13.0763 86.8635 18.2748 89.872 23.4733C101.798 44.0506 113.723 64.6009 125.649 85.1782C129.687 92.1366 133.726 99.0679 137.737 106.026C140.339 110.548 138.794 116.207 134.268 118.806C119.008 127.66 103.722 136.513 88.4626 145.367C85.2101 147.235 81.9577 149.103 78.7324 150.972C78.3258 151.215 77.8922 151.486 77.1604 151.946C78.0006 151.973 78.4614 152.027 78.9221 152.027C82.0932 152.027 85.2373 152.027 88.4084 152.027C89.9262 152.027 90.6309 152.677 90.6038 153.977C90.5767 155.195 89.8991 155.845 88.4626 155.845C76.6183 155.845 64.8011 155.845 52.9568 155.845C51.4119 155.845 50.6801 155.195 50.653 153.977C50.6259 152.704 51.4119 152.055 53.0111 152.055C55.1793 152.055 57.3476 152.055 59.6785 152.055C59.4617 151.621 59.3533 151.296 59.1907 151.026C40.6247 118.671 22.0316 86.3695 3.43854 54.0956C2.86936 53.1209 2.27309 52.1733 1.6497 51.2256C-0.84383 47.4621 -0.518587 43.2925 2.67964 40.0164C10.35 32.1374 18.0745 24.2585 25.7719 16.3795C28.5907 13.5095 31.3824 10.6395 34.2011 7.76955C37.4807 4.41219 41.221 3.89776 45.3949 6.09087C45.7202 6.25332 46.4249 6.14502 46.723 5.87427C48.295 4.5205 49.7857 3.0855 51.3035 1.6505C52.5774 0.459181 52.8755 0.513331 53.7429 1.94833C54.312 2.92304 54.9083 3.87068 55.5859 5.00785ZM67.918 151.946C67.9451 152.082 67.9722 152.217 68.0265 152.352C69.3545 151.865 70.7639 151.594 71.9565 150.89C91.8505 139.41 111.745 127.876 131.612 116.369C135.406 114.176 136.3 111.116 134.132 107.272C131.178 102.046 128.169 96.8477 125.161 91.6492C114.807 73.6711 104.454 55.666 94.1001 37.6879C88.7336 28.3739 83.3942 19.0871 78.0006 9.77313C76.266 6.74068 73.1219 5.82012 69.9779 7.33634C69.2461 7.68832 68.5414 8.09445 67.8367 8.50058C47.8885 20.0618 27.9402 31.6501 7.96484 43.2113C4.76662 45.0795 3.92641 48.1932 5.82366 51.3881C8.88637 56.6136 11.9491 61.8121 14.9847 67.0377C30.9487 94.3838 46.9127 121.757 62.8497 149.13C64.0151 151.134 65.4516 152.434 67.918 151.946ZM63.5544 2.38154C51.439 10.6395 39.4863 18.8163 27.5337 26.966C27.5879 27.0473 27.6421 27.1285 27.6963 27.2368C40.2452 19.9806 52.8213 12.7244 65.4787 5.41398C64.8282 4.38512 64.2591 3.46455 63.5544 2.38154ZM24.3083 26.587C24.3625 26.6682 24.4167 26.7223 24.498 26.8036C25.0672 26.4516 25.6364 26.0996 26.2056 25.7206C34.8245 19.8723 43.4706 14.024 52.0895 8.1486C54.556 6.46993 54.556 6.46993 53.0382 3.89776C53.0111 3.84361 52.9026 3.78946 52.7129 3.70823C43.2538 11.2894 33.7946 18.9517 24.3083 26.587ZM42.6304 8.82549C40.5434 8.22983 39.0256 8.58181 37.7517 9.90851C33.632 14.1323 29.5122 18.356 25.3654 22.5527C24.8504 23.0942 24.1999 23.5004 23.6036 23.9607C23.7391 24.096 23.8747 24.2314 24.0102 24.3668C30.1356 19.2495 36.261 14.1323 42.6304 8.82549Z" fill="white"/>
<path d="M37.0748 67.092C36.8851 52.1735 49.9219 40.2061 64.5037 40.5581C80.2509 40.9372 90.6315 54.5561 90.5773 67.5252C90.5231 80.8734 78.2723 95.1963 62.3354 94.1675C48.377 93.274 36.5598 80.9547 37.0748 67.092ZM69.1655 60.7564C69.2468 59.4838 69.2468 59.4568 68.0271 59.0506C59.0558 56.0723 49.9761 55.7745 40.7609 57.8052C40.3001 57.9135 39.7581 58.4279 39.6226 58.8882C39.1889 60.269 38.8365 61.6769 38.6197 63.0849C38.5384 63.5181 38.8366 64.2491 39.1889 64.4928C41.9264 66.4422 44.718 68.3375 47.5368 70.1786C51.4668 72.7508 55.5324 75.0522 60.2213 75.9999C60.655 76.0811 61.0615 76.5414 61.3868 76.8933C62.1728 77.7598 64.2326 77.841 64.6392 76.9746C67.0514 71.8302 68.6234 66.4422 69.1655 60.7564ZM69.7889 56.6951C69.7889 53.2294 70.1141 49.845 69.7076 46.5147C69.1926 42.1826 68.8945 42.1826 64.5308 42.0743C56.9689 41.8848 50.6537 44.7819 45.3414 50.0074C43.9591 51.3612 42.8479 52.9857 41.6011 54.4749C41.6824 54.6103 41.7908 54.7186 41.8722 54.8539C51.3855 52.9045 60.7092 53.5814 69.7889 56.6951ZM38.8637 65.9278C38.8637 66.7942 38.8094 67.2274 38.8637 67.6606C39.0263 68.9061 39.1347 70.1786 39.3786 71.397C41.2488 80.1424 46.2358 86.451 54.4211 90.1332C54.8277 90.3228 55.6679 90.3228 55.8847 90.052C57.8904 87.6694 59.8418 85.2596 61.6849 82.7687C62.5251 81.6315 63.1485 80.3319 64.0429 78.7886C54.3398 76.9746 45.9106 73.1569 38.8637 65.9278ZM68 77.4619C68.515 77.5702 69.0571 77.7598 69.6262 77.7598C75.2096 77.8139 80.8471 78.1117 86.2679 76.3789C86.7557 76.2165 87.352 75.702 87.5146 75.2417C87.9483 73.915 88.3006 72.5613 88.4904 71.1804C88.5717 70.6389 88.3006 69.7996 87.8941 69.5017C85.1024 67.2816 82.3378 65.0343 79.3835 63.0578C77.2695 61.6499 74.8843 60.6481 72.6076 59.4568C72.0114 62.7058 71.6048 65.7112 70.873 68.6353C70.1412 71.5595 69.0029 74.4024 68 77.4619ZM58.3511 91.0809C67.214 94.5736 82.7986 87.7235 86.1594 78.6803C85.8884 78.6803 85.6174 78.6262 85.3734 78.6803C80.034 79.8716 74.6404 79.9799 69.2197 79.3572C67.6748 79.1677 66.5906 79.3843 66.0486 80.9547C65.9131 81.3337 65.6149 81.6315 65.371 81.9564C63.0401 85.016 60.7092 88.0484 58.3511 91.0809ZM70.9001 43.6718C71.9572 47.9497 72.5263 52.1193 72.3366 56.3702C72.2824 57.399 72.7161 57.7781 73.5834 58.103C77.8928 59.7817 81.8229 62.1643 85.4548 65.0614C86.4576 65.8736 87.4604 66.6859 88.5175 67.5523C89.1408 57.2095 81.4976 45.8107 70.9001 43.6718Z" fill="white"/>
<path d="M106.108 94.1406C108.926 94.3031 110.797 95.7381 111.799 98.2019C112.721 100.395 112.179 102.48 110.688 104.267C110.092 104.971 109.306 105.566 108.493 106.027C96.9467 112.741 85.3734 119.429 73.8273 126.117C70.3038 128.147 67.1056 127.389 64.9644 124.005C63.3382 121.406 64.1513 117.886 66.8346 116.342C79.1396 109.195 91.4176 102.074 103.75 94.98C104.427 94.5468 105.295 94.4114 106.108 94.1406ZM106.379 96.442C104.482 96.2525 103.072 97.5521 101.527 98.4456C90.3334 104.862 79.1667 111.361 67.9729 117.805C66.6178 118.59 65.9131 120.052 66.157 121.703C66.5093 124.059 69.3281 126.171 72.3095 124.438C84.1267 117.534 95.971 110.738 107.815 103.861C108.466 103.482 109.062 102.94 109.496 102.344C110.526 100.937 110.309 99.4745 109.523 98.0124C108.872 96.7399 107.788 96.3879 106.379 96.442Z" fill="white"/>
<path d="M74.2866 132.696C73.9885 132.479 73.609 132.344 73.5006 132.1C73.4193 131.911 73.5548 131.477 73.7446 131.288C74.0156 130.99 74.368 130.801 74.7203 130.584C87.2693 123.382 99.8453 116.207 112.421 109.032C112.936 108.734 113.587 107.786 114.21 108.897C114.779 109.925 113.749 110.196 113.153 110.548C108.546 113.202 103.938 115.855 99.3033 118.481C91.389 123.003 83.5019 127.524 75.5876 132.046C75.1811 132.263 74.7745 132.452 74.2866 132.696Z" fill="white"/>
</svg>
