<svg width="187" height="233" viewBox="0 0 187 233" fill="none" xmlns="http://www.w3.org/2000/svg">
<path d="M153.447 52.5266C153.19 77.0782 135.006 98.0679 110.354 102.011C105.36 102.838 99.9814 103.665 95.1791 102.838C85.1904 100.994 75.714 97.2411 67.7743 90.6897C48.3091 74.6612 43.3147 47.4382 55.9287 26.1305C69.1189 3.67785 95.8194 -5.73572 119.639 3.55064C140.128 11.5649 153.703 31.2189 153.447 52.5266ZM96.908 8.38463C86.9193 8.70266 74.8176 14.6815 65.9174 26.8301C52.0869 45.6573 56.2488 72.2442 75.3298 85.3469C86.8552 93.2339 99.7893 95.2057 113.492 93.0431C114.58 92.8523 116.181 92.6615 116.821 93.2975C118.55 95.0149 119.895 93.9972 121.367 93.2339C139.168 84.4564 148.388 66.2017 145.443 45.6573C142.433 24.4767 123.096 7.87579 96.908 8.38463Z" fill="#F9FFFE"/>
<mask id="mask0" mask-type="alpha" maskUnits="userSpaceOnUse" x="0" y="109" width="187" height="124">
<path d="M99.5812 232.252C67.6302 230.789 35.6791 229.263 3.72808 227.8C-0.305818 227.609 -0.241787 227.418 0.206424 223.22C2.19136 206.429 7.12168 190.527 14.7413 175.453C27.7394 149.693 46.3722 129.339 73.3289 117.445C86.8392 111.466 100.862 107.904 115.845 109.304C130.7 110.703 142.994 117.381 154.007 126.986C171.039 141.869 179.811 160.951 182.5 182.895C184.293 197.397 185.51 211.962 186.918 226.528C187.303 230.471 185.254 232.443 180.9 232.443C161.05 232.252 141.201 232.062 121.351 231.871C114.116 231.807 106.817 231.871 99.5812 231.871C99.5812 231.934 99.5812 232.125 99.5812 232.252ZM176.033 222.139C175.073 211.517 174.497 201.277 173.088 191.1C171.935 182.45 170.335 173.736 168.093 165.276C163.868 149.502 153.11 138.308 140.817 128.194C130.828 119.989 119.431 116.555 106.625 117.381C88.3759 118.59 71.9202 124.823 57.0012 135.127C37.1518 148.993 23.4494 167.82 14.0369 189.828C9.55483 200.259 6.35332 211.135 4.36838 222.775C61.6754 220.04 118.662 221.694 176.033 222.139Z" fill="white"/>
</mask>
<g mask="url(#mask0)">
<rect x="-91" y="-21" width="338" height="212" fill="#F9FFFE"/>
</g>
</svg>
