<svg id="Layer_1" data-name="Layer 1" xmlns="http://www.w3.org/2000/svg" viewBox="0 0 28 28"><defs><style>.cls-1{fill:#000000;}</style></defs><path class="cls-1" d="M13.18,18.44v2.69a1,1,0,1,0,2,0V18.46A9.67,9.67,0,0,0,17.23,18l0.85,2.21a1,1,0,1,0,1.87-.72l-0.88-2.28a13.75,13.75,0,0,0,1.8-1.17l1.7,1.7A1,1,0,1,0,24,16.36l-1.6-1.6q0.74-.71,1.47-1.56a1,1,0,1,0-1.52-1.3c-4.87,5.67-9.58,5.67-14,2.3a14.91,14.91,0,0,1-1.76-1.57c-0.3-.32-0.51-0.56-0.61-0.68a1,1,0,0,0-1.58,1.22c0.14,0.18.39,0.47,0.74,0.84s0.51,0.52.79,0.78L4,16.7a1,1,0,0,0,1.41,1.41l2.05-2.05a15.27,15.27,0,0,0,1.8,1.12l-1,2.53a1,1,0,0,0,1.87.72L11.12,18A10.29,10.29,0,0,0,13.18,18.44Z"/></svg>