<?xml version="1.0" encoding="utf-8"?>
<!-- Generator: Adobe Illustrator 24.0.3, SVG Export Plug-In . SVG Version: 6.00 Build 0)  -->
<svg version="1.1" id="Layer_1" xmlns="http://www.w3.org/2000/svg" xmlns:xlink="http://www.w3.org/1999/xlink" x="0px" y="0px"
	 viewBox="0 0 63 63" style="enable-background:new 0 0 63 63;" xml:space="preserve">
<path d="M49.4,49.4V24.5c0-0.1-0.1-0.3-0.2-0.4l-6.3-6.2c-0.1-0.1-0.3-0.2-0.4-0.2h-5.3L36.7,15c-0.2-1.4-1.6-2.3-2.9-2.1l-19,3.4
	c-0.7,0.1-1.3,0.5-1.6,1c-0.4,0.5-0.5,1.3-0.4,1.9l4.4,25.1c0.2,1.4,1.6,2.3,2.9,2.1l1.6-0.2v3.3c0,1,0.8,1.7,1.7,1.7h24.4
	C48.6,51.1,49.4,50.3,49.4,49.4z M43.6,23.9c-0.3,0-0.5-0.2-0.5-0.5v-3.6l4.3,4.2L43.6,23.9L43.6,23.9z M19.8,45.1
	c-0.7,0.1-1.4-0.4-1.6-1.1L13.8,19c-0.1-0.4,0-0.7,0.2-1c0.2-0.2,0.5-0.5,0.9-0.5l19-3.3c0.7-0.1,1.4,0.4,1.6,1.1l0.5,2.6H23.3
	c-1,0-1.7,0.8-1.7,1.7v25.4L19.8,45.1z M48.2,49.4c0,0.3-0.2,0.5-0.5,0.5H23.3c-0.3,0-0.5-0.2-0.5-0.5c0-6.2,0-23.6,0-29.9
	c0-0.3,0.2-0.5,0.5-0.5c5.5,0,12.9,0,18.6,0v4.4c0,1,0.8,1.7,1.7,1.7h4.6V49.4z"/>
<path d="M44.1,31.6H26.9c-0.4,0-0.6,0.2-0.6,0.6s0.2,0.6,0.6,0.6h17.2c0.4,0,0.6-0.2,0.6-0.6S44.4,31.6,44.1,31.6z M26.3,27.6
	c0,0.4,0.2,0.6,0.6,0.6h17.2c0.4,0,0.6-0.2,0.6-0.6S44.4,27,44.1,27H26.9C26.5,27,26.3,27.3,26.3,27.6z M44.1,36.1H26.9
	c-0.4,0-0.6,0.2-0.6,0.6s0.2,0.6,0.6,0.6h17.2c0.4,0,0.6-0.2,0.6-0.6S44.4,36.1,44.1,36.1z M44.1,40.6H26.9c-0.4,0-0.6,0.2-0.6,0.6
	s0.2,0.6,0.6,0.6h17.2c0.4,0,0.6-0.2,0.6-0.6S44.4,40.6,44.1,40.6z M44.1,45.1H26.9c-0.4,0-0.6,0.2-0.6,0.6s0.2,0.6,0.6,0.6h17.2
	c0.4,0,0.6-0.2,0.6-0.6S44.4,45.1,44.1,45.1z"/>
</svg>
