<?xml version="1.0" encoding="utf-8"?>
<!-- Generator: Adobe Illustrator 24.0.3, SVG Export Plug-In . SVG Version: 6.00 Build 0)  -->
<svg version="1.1" id="Layer_1" xmlns="http://www.w3.org/2000/svg" xmlns:xlink="http://www.w3.org/1999/xlink" x="0px" y="0px"
	 viewBox="0 0 64 64" style="enable-background:new 0 0 64 64;" xml:space="preserve">
<style type="text/css">
	.st0{fill:none;stroke:#000000;stroke-width:1.3;stroke-linecap:round;}
</style>
<path d="M46,16H18c-2.2,0-4,1.8-4,3.9v20.5c0,2.2,1.8,3.9,4,3.9h13.4v6H25c-0.2,0-0.3,0.1-0.4,0.2c-0.1,0.1-0.2,0.3-0.2,0.4
	s0.1,0.3,0.2,0.4c0.1,0.1,0.3,0.2,0.4,0.2h14.3c0.2,0,0.3-0.1,0.4-0.2c0.1-0.1,0.2-0.3,0.2-0.4s-0.1-0.3-0.2-0.4
	c-0.1-0.1-0.3-0.2-0.4-0.2h-6.8v-6H46c0.5,0,1-0.1,1.5-0.3c0.5-0.2,0.9-0.5,1.3-0.8c0.4-0.4,0.7-0.8,0.9-1.3c0.2-0.5,0.3-1,0.3-1.5
	V19.9c0-1-0.4-2.1-1.2-2.8C48,16.4,47,16,46,16z M18,17.2h28c0.7,0,1.4,0.3,2,0.8c0.5,0.5,0.8,1.2,0.8,2v17H15.2v-17
	c0-0.7,0.3-1.4,0.8-2C16.5,17.5,17.2,17.2,18,17.2z M46,43.2H18c-1.5,0-2.8-1.2-2.8-2.8v-2.4h33.6v2.4c0,0.4-0.1,0.7-0.2,1.1
	c-0.1,0.3-0.3,0.6-0.6,0.9c-0.3,0.3-0.6,0.5-0.9,0.6C46.7,43.1,46.4,43.2,46,43.2z"/>
<path class="st0" d="M23.2,37.1c1.2-2.6,3.5-4.6,6.2-5.4c0.3-0.1,0.5-0.3,0.5-0.6c0-0.3-0.1-0.6-0.3-0.7c-1.5-0.9-2.5-2.5-2.5-4.3
	c0-2.7,2.1-4.9,4.7-4.9c2.6,0,4.7,2.2,4.7,4.9c0,1.8-0.9,3.4-2.5,4.3c-0.2,0.1-0.4,0.4-0.3,0.7c0,0.3,0.2,0.5,0.5,0.6
	c2.7,0.7,5,2.7,6.2,5.4"/>
</svg>
