<?xml version="1.0" encoding="utf-8"?>
<!-- Generator: Adobe Illustrator 24.0.3, SVG Export Plug-In . SVG Version: 6.00 Build 0)  -->
<svg version="1.1" id="Layer_1" xmlns="http://www.w3.org/2000/svg" xmlns:xlink="http://www.w3.org/1999/xlink" x="0px" y="0px"
	 viewBox="0 0 63 63" style="enable-background:new 0 0 63 63;" xml:space="preserve">
<style type="text/css">
	.st0{fill:none;stroke:#000000;stroke-width:1.3;stroke-linecap:round;}
</style>
<path d="M46.5,15.7h-28c-2.2,0-4,1.8-4,3.9v20.5c0,2.2,1.8,3.9,4,3.9h13.4v6h-6.3c-0.2,0-0.3,0.1-0.4,0.2C25,50.4,25,50.6,25,50.7
	s0.1,0.3,0.2,0.4c0.1,0.1,0.3,0.2,0.4,0.2h14.3c0.2,0,0.3-0.1,0.4-0.2c0.1-0.1,0.2-0.3,0.2-0.4s-0.1-0.3-0.2-0.4
	c-0.1-0.1-0.3-0.2-0.4-0.2h-6.8v-6h13.4c0.5,0,1-0.1,1.5-0.3c0.5-0.2,0.9-0.5,1.3-0.8c0.4-0.4,0.7-0.8,0.9-1.3
	c0.2-0.5,0.3-1,0.3-1.5V19.6c0-1-0.4-2.1-1.2-2.8C48.6,16.1,47.6,15.7,46.5,15.7z M18.5,16.9h28c0.7,0,1.4,0.3,2,0.8
	c0.5,0.5,0.8,1.2,0.8,2v17H15.7v-17c0-0.7,0.3-1.4,0.8-2C17.1,17.2,17.8,16.9,18.5,16.9L18.5,16.9z M46.5,42.9h-28
	c-1.5,0-2.8-1.2-2.8-2.8v-2.4h33.6v2.4c0,0.4-0.1,0.7-0.2,1.1c-0.1,0.3-0.3,0.6-0.6,0.9c-0.3,0.3-0.6,0.5-0.9,0.6
	C47.2,42.8,46.9,42.9,46.5,42.9z"/>
<path class="st0" d="M23.7,36.8c1.2-2.6,3.5-4.6,6.2-5.4c0.3-0.1,0.5-0.3,0.5-0.6c0-0.3-0.1-0.6-0.3-0.7c-1.5-0.9-2.5-2.5-2.5-4.3
	c0-2.7,2.1-4.9,4.7-4.9c2.6,0,4.7,2.2,4.7,4.9c0,1.8-0.9,3.4-2.5,4.3c-0.2,0.1-0.4,0.4-0.3,0.7c0,0.3,0.2,0.5,0.5,0.6
	c2.7,0.7,5,2.7,6.2,5.4"/>
</svg>
