<?xml version="1.0" encoding="utf-8"?>
<!-- Generator: Adobe Illustrator 24.0.3, SVG Export Plug-In . SVG Version: 6.00 Build 0)  -->
<svg version="1.1" id="Layer_1" xmlns="http://www.w3.org/2000/svg" xmlns:xlink="http://www.w3.org/1999/xlink" x="0px" y="0px"
	 viewBox="0 0 24 24" style="enable-background:new 0 0 24 24;" xml:space="preserve">
<path d="M9,11.4l2.5,2.5c0.1,0.1,0.1,0.1,0.2,0.1c0.1,0,0.2,0,0.2,0c0.1,0,0.2,0,0.2,0c0.1,0,0.1-0.1,0.2-0.1l2.7-2.5l-0.8-0.8
	l-1.5,1.5V5.7h-1.2v6.4L10,10.6L9,11.4z"/>
<path d="M16.2,12.8v2.4H7.8v-2.4H6.6v2.4c0,0.7,0.5,1.2,1.2,1.2h8.4c0.7,0,1.2-0.5,1.2-1.2v-2.4C17.4,12.8,16.2,12.8,16.2,12.8z"/>
</svg>
