<?xml version="1.0" encoding="utf-8"?>
<!-- Generator: Adobe Illustrator 24.0.3, SVG Export Plug-In . SVG Version: 6.00 Build 0)  -->
<svg version="1.1" id="Layer_1" xmlns="http://www.w3.org/2000/svg" xmlns:xlink="http://www.w3.org/1999/xlink" x="0px" y="0px"
	 viewBox="0 0 64 64" style="enable-background:new 0 0 64 64;" xml:space="preserve">
<path d="M50.8,47.5V22.7c0-0.1-0.1-0.3-0.2-0.4l-6.3-6.2c-0.1-0.1-0.3-0.2-0.4-0.2h-5.3L38,13.1c-0.2-1.4-1.6-2.3-2.9-2.1l-19,3.4
	c-0.7,0.1-1.3,0.5-1.6,1C14,16,13.9,16.7,14,17.4l4.4,25.1c0.2,1.4,1.6,2.3,2.9,2.1l1.6-0.2v3.3c0,1,0.8,1.7,1.7,1.7H49
	C50,49.2,50.8,48.5,50.8,47.5z M45,22.1c-0.3,0-0.5-0.2-0.5-0.5V18l4.3,4.2L45,22.1L45,22.1z M21.1,43.3c-0.7,0.1-1.4-0.4-1.6-1.1
	l-4.4-25.1c-0.1-0.4,0-0.7,0.2-1c0.2-0.2,0.5-0.5,0.9-0.5l19-3.3c0.7-0.1,1.4,0.4,1.6,1.1l0.5,2.6H24.7c-1,0-1.7,0.8-1.7,1.7V43
	L21.1,43.3z M49.6,47.5c0,0.3-0.2,0.5-0.5,0.5H24.7c-0.3,0-0.5-0.2-0.5-0.5c0-6.2,0-23.6,0-29.9c0-0.3,0.2-0.5,0.5-0.5
	c5.5,0,12.9,0,18.6,0v4.4c0,1,0.8,1.7,1.7,1.7h4.6V47.5z"/>
<path d="M28.1,23.6h-0.4c0,0,0,0,0,0c0,0,0,0,0,0L28.1,23.6C28.1,23.7,28.1,23.7,28.1,23.6C28.1,23.6,28.1,23.6,28.1,23.6z
	 M28.1,23.7h-0.4c0,0,0,0,0,0c0,0,0,0,0,0L28.1,23.7C28.1,23.8,28.1,23.8,28.1,23.7C28.1,23.7,28.1,23.7,28.1,23.7z M28.1,23.8h-0.4
	c0,0,0,0,0,0c0,0,0,0,0,0L28.1,23.8C28.1,23.9,28.1,23.8,28.1,23.8C28.1,23.8,28.1,23.8,28.1,23.8z"/>
<path d="M34.7,23.8c-0.2,0.2-0.4,0.4-0.7,0.7c-0.5,0.5-1.1,1.1-1.6,1.6c-0.6,0.6-1.3,1.3-1.9,1.9c-0.6,0.6-1.1,1.1-1.7,1.7
	c-0.3,0.3-0.5,0.5-0.8,0.8c0,0,0,0,0,0c-0.2,0.2-0.2,0.7,0,0.9c0.2,0.2,0.6,0.2,0.9,0c0.2-0.2,0.4-0.4,0.7-0.7
	c0.5-0.5,1.1-1.1,1.6-1.6c0.6-0.6,1.3-1.3,1.9-1.9c0.6-0.6,1.1-1.1,1.7-1.7c0.3-0.3,0.5-0.5,0.8-0.8c0,0,0,0,0,0
	c0.2-0.2,0.2-0.7,0-0.9C35.3,23.6,35,23.6,34.7,23.8z M29.8,25.6C29.8,25.6,29.8,25.6,29.8,25.6C29.6,25.7,29.9,25.6,29.8,25.6
	c-0.1,0.1-0.2,0.2-0.3,0.2c0,0,0.1,0,0.1-0.1c-0.1,0-0.2,0.1-0.4,0.1c0.1,0,0.1,0,0.2,0c-0.1,0-0.2,0-0.3,0c0.1,0,0.1,0,0.2,0
	c-0.1,0-0.2,0-0.4-0.1c0,0,0.1,0,0.1,0.1c-0.1,0-0.1-0.1-0.2-0.1c-0.1-0.1,0.1,0.1,0,0c0,0-0.1-0.1-0.1-0.1c0,0-0.1-0.1-0.1-0.1
	c-0.1-0.1,0.1,0.1,0,0c0-0.1-0.1-0.1-0.1-0.2c0,0,0,0.1,0.1,0.1c0-0.1-0.1-0.2-0.1-0.4c0,0.1,0,0.1,0,0.2c0-0.1,0-0.2,0-0.3
	c0,0.1,0,0.1,0,0.2c0-0.1,0-0.2,0.1-0.4c0,0,0,0.1-0.1,0.1c0-0.1,0.1-0.1,0.1-0.2c0.1-0.1-0.1,0.1,0,0c0,0,0.1-0.1,0.1-0.1
	c0,0,0.1-0.1,0.1-0.1c0.1-0.1-0.1,0.1,0,0c0.1,0,0.1-0.1,0.2-0.1c0,0-0.1,0-0.1,0.1c0.1,0,0.2-0.1,0.4-0.1c-0.1,0-0.1,0-0.2,0
	c0.1,0,0.2,0,0.3,0c-0.1,0-0.1,0-0.2,0c0.1,0,0.2,0,0.4,0.1c0,0-0.1,0-0.1-0.1c0.1,0,0.1,0.1,0.2,0.1c0.1,0.1-0.1-0.1,0,0
	c0,0,0.1,0.1,0.1,0.1c0,0,0.1,0.1,0.1,0.1c0.1,0.1-0.1-0.1,0,0c0,0.1,0.1,0.1,0.1,0.2c0,0,0-0.1-0.1-0.1c0,0.1,0.1,0.2,0.1,0.4
	c0-0.1,0-0.1,0-0.2c0,0.1,0,0.2,0,0.3c0-0.1,0-0.1,0-0.2c0,0.1,0,0.2-0.1,0.4c0,0,0-0.1,0.1-0.1C30,25.4,29.9,25.4,29.8,25.6
	C29.8,25.6,30,25.4,29.8,25.6C29.9,25.5,29.8,25.6,29.8,25.6c-0.2,0.2-0.2,0.7,0,0.9c0.2,0.2,0.6,0.2,0.9,0c0.3-0.3,0.5-0.6,0.5-1
	c0.1-0.4,0-0.8-0.2-1.2c-0.3-0.7-1.1-1.1-1.9-1.1c-0.4,0-0.8,0.2-1.1,0.5c-0.3,0.2-0.5,0.6-0.6,1c-0.2,0.8,0.1,1.7,0.8,2.1
	c0.8,0.5,1.8,0.4,2.4-0.3c0.2-0.2,0.2-0.7,0-0.9C30.4,25.4,30.1,25.3,29.8,25.6z M34.8,30.6C34.8,30.6,34.8,30.7,34.8,30.6
	C34.7,30.8,34.9,30.6,34.8,30.6c-0.1,0.1-0.2,0.2-0.3,0.2c0,0,0.1,0,0.1-0.1c-0.1,0-0.2,0.1-0.4,0.1c0.1,0,0.1,0,0.2,0
	c-0.1,0-0.2,0-0.3,0c0.1,0,0.1,0,0.2,0c-0.1,0-0.2,0-0.4-0.1c0,0,0.1,0,0.1,0.1c-0.1,0-0.1-0.1-0.2-0.1c-0.1-0.1,0.1,0.1,0,0
	c0,0-0.1-0.1-0.1-0.1c0,0-0.1-0.1-0.1-0.1c-0.1-0.1,0.1,0.1,0,0c0-0.1-0.1-0.1-0.1-0.2c0,0,0,0.1,0.1,0.1c0-0.1-0.1-0.2-0.1-0.4
	c0,0.1,0,0.1,0,0.2c0-0.1,0-0.2,0-0.3c0,0.1,0,0.1,0,0.2c0-0.1,0-0.2,0.1-0.4c0,0,0,0.1-0.1,0.1c0-0.1,0.1-0.1,0.1-0.2
	c0.1-0.1-0.1,0.1,0,0c0,0,0.1-0.1,0.1-0.1c0,0,0.1-0.1,0.1-0.1c0.1-0.1-0.1,0.1,0,0c0.1,0,0.1-0.1,0.2-0.1c0,0-0.1,0-0.1,0.1
	c0.1,0,0.2-0.1,0.4-0.1c-0.1,0-0.1,0-0.2,0c0.1,0,0.2,0,0.3,0c-0.1,0-0.1,0-0.2,0c0.1,0,0.2,0,0.4,0.1c0,0-0.1,0-0.1-0.1
	c0.1,0,0.1,0.1,0.2,0.1c0.1,0.1-0.1-0.1,0,0c0,0,0.1,0.1,0.1,0.1c0,0,0.1,0.1,0.1,0.1c0.1,0.1-0.1-0.1,0,0c0,0.1,0.1,0.1,0.1,0.2
	c0,0,0-0.1-0.1-0.1c0,0.1,0.1,0.2,0.1,0.4c0-0.1,0-0.1,0-0.2c0,0.1,0,0.2,0,0.3c0-0.1,0-0.1,0-0.2c0,0.1,0,0.2-0.1,0.4
	c0,0,0-0.1,0.1-0.1C35,30.4,35,30.5,34.8,30.6C34.8,30.7,35,30.4,34.8,30.6C34.9,30.6,34.9,30.6,34.8,30.6c-0.2,0.2-0.2,0.7,0,0.9
	c0.2,0.2,0.6,0.2,0.9,0c0.3-0.3,0.5-0.6,0.5-1c0.1-0.4,0-0.8-0.2-1.2c-0.3-0.7-1.1-1.1-1.9-1.1c-0.4,0-0.8,0.2-1.1,0.5
	c-0.3,0.2-0.5,0.6-0.6,1c-0.2,0.8,0.1,1.7,0.8,2.1c0.8,0.5,1.8,0.4,2.4-0.3c0.2-0.2,0.2-0.7,0-0.9C35.5,30.4,35.1,30.4,34.8,30.6z"
	/>
<path d="M45.2,35.1H28c-0.4,0-0.6,0.2-0.6,0.6s0.2,0.6,0.6,0.6h17.2c0.4,0,0.6-0.2,0.6-0.6S45.5,35.1,45.2,35.1z M45.2,39.6H28
	c-0.4,0-0.6,0.2-0.6,0.6s0.2,0.6,0.6,0.6h17.2c0.4,0,0.6-0.2,0.6-0.6S45.5,39.6,45.2,39.6z M45.2,44.2H28c-0.4,0-0.6,0.2-0.6,0.6
	s0.2,0.6,0.6,0.6h17.2c0.4,0,0.6-0.2,0.6-0.6S45.5,44.2,45.2,44.2z"/>
</svg>
