<svg width="18" height="18" viewBox="0 0 18 18" fill="none" xmlns="http://www.w3.org/2000/svg">
<path d="M17.7249 16.4655L12.8191 11.5598C13.9385 10.1167 14.466 8.30127 14.2942 6.48301C14.1223 4.66475 13.2641 2.98029 11.8941 1.77247C10.5242 0.564645 8.74547 -0.0757675 6.92 -0.0184298C5.09454 0.0389079 3.35952 0.789687 2.06806 2.0811C0.77661 3.37252 0.0257824 5.10752 -0.031607 6.93298C-0.0889963 8.75845 0.551366 10.5372 1.75915 11.9072C2.96693 13.2772 4.65137 14.1354 6.46963 14.3073C8.28788 14.4792 10.1033 13.9518 11.5464 12.8324L16.4522 17.7382C16.5358 17.8217 16.635 17.888 16.7442 17.9333C16.8533 17.9785 16.9704 18.0018 17.0885 18.0018C17.2067 18.0018 17.3237 17.9785 17.4329 17.9333C17.5421 17.888 17.6413 17.8217 17.7248 17.7382H17.7249C17.8084 17.6546 17.8747 17.5554 17.92 17.4462C17.9652 17.337 17.9885 17.22 17.9885 17.1019C17.9885 16.9837 17.9652 16.8667 17.92 16.7575C17.8747 16.6483 17.8084 16.5491 17.7249 16.4655ZM7.15738 12.5392C6.09553 12.5392 5.05754 12.2243 4.17464 11.6344C3.29175 11.0445 2.60361 10.206 2.19726 9.22501C1.7909 8.244 1.68458 7.16452 1.89173 6.12308C2.09888 5.08165 2.61021 4.12502 3.36104 3.37419C4.11188 2.62336 5.0685 2.11203 6.10994 1.90488C7.15138 1.69773 8.23086 1.80406 9.21187 2.21042C10.1929 2.61677 11.0314 3.30491 11.6213 4.1878C12.2112 5.0707 12.526 6.1087 12.526 7.17054C12.5244 8.59388 11.9582 9.95845 10.9517 10.9649C9.94529 11.9714 8.58072 12.5375 7.15738 12.5392V12.5392Z" fill="#979797"/>
</svg>
