<svg width="30" height="23" viewBox="0 0 30 23" xmlns="http://www.w3.org/2000/svg">
<path fill-rule="evenodd" clip-rule="evenodd" d="M3.75 0C1.67893 0 0 1.67894 0 3.75V19.375C0 21.1009 1.39911 22.5 3.125 22.5H26.875C28.6009 22.5 30 21.1009 30 19.375V3.75C30 1.67894 28.3211 0 26.25 0H3.75ZM3.31778 2.57674C3.45248 2.5271 3.59807 2.5 3.75 2.5H26.25C26.4019 2.5 26.5475 2.5271 26.6823 2.57674L15.7915 11.4873C15.3311 11.864 14.6689 11.864 14.2085 11.4873L3.31778 2.57674ZM2.5 5.1378V17.4443L10.211 11.4468L2.5 5.1378ZM26.714 20H3.28603L12.1954 13.0705L12.6254 13.4222C14.0068 14.5524 15.9932 14.5524 17.3746 13.4222L17.8045 13.0705L26.714 20ZM27.5 17.4443V5.1378L19.789 11.4468L27.5 17.4443Z" fill="currentColor" />
</svg>
