<svg width="64" height="64" viewBox="0 0 64 64" fill="none" xmlns="http://www.w3.org/2000/svg">
<path d="M36 7H28C27.7348 7 27.4804 7.10536 27.2929 7.29289C27.1054 7.48043 27 7.73478 27 8C27 8.26522 27.1054 8.51957 27.2929 8.70711C27.4804 8.89464 27.7348 9 28 9H36C36.2652 9 36.5196 8.89464 36.7071 8.70711C36.8946 8.51957 37 8.26522 37 8C37 7.73478 36.8946 7.48043 36.7071 7.29289C36.5196 7.10536 36.2652 7 36 7Z" fill="#979797"/>
<path d="M59 25H50V10C50 8.4087 49.3679 6.88258 48.2426 5.75736C47.1174 4.63214 45.5913 4 44 4H20C18.4087 4 16.8826 4.63214 15.7574 5.75736C14.6321 6.88258 14 8.4087 14 10V25H5C4.73478 25 4.48043 25.1054 4.29289 25.2929C4.10536 25.4804 4 25.7348 4 26V38C4 38.2652 4.10536 38.5196 4.29289 38.7071C4.48043 38.8946 4.73478 39 5 39H14V54C14 55.5913 14.6321 57.1174 15.7574 58.2426C16.8826 59.3679 18.4087 60 20 60H44C45.5913 60 47.1174 59.3679 48.2426 58.2426C49.3679 57.1174 50 55.5913 50 54V39H59C59.2652 39 59.5196 38.8946 59.7071 38.7071C59.8946 38.5196 60 38.2652 60 38V26C60 25.7348 59.8946 25.4804 59.7071 25.2929C59.5196 25.1054 59.2652 25 59 25ZM20 6H44C45.0609 6 46.0783 6.42143 46.8284 7.17157C47.5786 7.92172 48 8.93913 48 10H16C16 8.93913 16.4214 7.92172 17.1716 7.17157C17.9217 6.42143 18.9391 6 20 6ZM16 12H48V25H16V12ZM44 58H20C18.9391 58 17.9217 57.5786 17.1716 56.8284C16.4214 56.0783 16 55.0609 16 54H48C48 55.0609 47.5786 56.0783 46.8284 56.8284C46.0783 57.5786 45.0609 58 44 58ZM48 52H16V39H48V52ZM58 37H6V27H58V37Z" fill="#979797"/>
<path d="M17.8301 29.45C17.7574 29.3401 17.6638 29.2456 17.5545 29.172C17.4452 29.0984 17.3224 29.0471 17.1933 29.0211C17.0641 28.995 16.9311 28.9948 16.8018 29.0204C16.6725 29.0459 16.5496 29.0968 16.4401 29.17L14.9901 30.17V29C14.9901 28.7348 14.8847 28.4804 14.6972 28.2929C14.5096 28.1054 14.2553 28 13.9901 28C13.7248 28 13.4705 28.1054 13.283 28.2929C13.0954 28.4804 12.9901 28.7348 12.9901 29V30.13L11.5401 29.13C11.4314 29.0483 11.3072 28.9895 11.175 28.9574C11.0429 28.9253 10.9056 28.9205 10.7715 28.9433C10.6374 28.9661 10.5094 29.016 10.3953 29.0899C10.2811 29.1638 10.1833 29.2603 10.1077 29.3733C10.0321 29.4864 9.98035 29.6136 9.95563 29.7474C9.93091 29.8811 9.93372 30.0185 9.96389 30.1511C9.99407 30.2837 10.051 30.4087 10.1311 30.5186C10.2113 30.6284 10.313 30.7208 10.4301 30.79L12.2001 32L10.4501 33.17C10.333 33.2392 10.2313 33.3316 10.1511 33.4414C10.071 33.5513 10.0141 33.6763 9.98389 33.8089C9.95372 33.9415 9.95091 34.0789 9.97563 34.2126C10.0004 34.3464 10.0521 34.4736 10.1277 34.5867C10.2033 34.6997 10.3011 34.7962 10.4153 34.8701C10.5294 34.944 10.6574 34.9939 10.7915 35.0167C10.9256 35.0395 11.0629 35.0347 11.195 35.0026C11.3272 34.9705 11.4514 34.9117 11.5601 34.83L13.0101 33.83V35C13.0101 35.2652 13.1154 35.5196 13.303 35.7071C13.4905 35.8946 13.7448 36 14.0101 36C14.2753 36 14.5296 35.8946 14.7172 35.7071C14.9047 35.5196 15.0101 35.2652 15.0101 35V33.87L16.4601 34.87C16.6801 35.0001 16.9416 35.041 17.1908 34.9842C17.4401 34.9275 17.6582 34.7775 17.8002 34.565C17.9423 34.3525 17.9977 34.0937 17.9548 33.8417C17.912 33.5897 17.7743 33.3636 17.5701 33.21L15.8001 32L17.5501 30.83C17.7693 30.6834 17.9217 30.4561 17.9741 30.1976C18.0266 29.9392 17.9748 29.6705 17.8301 29.45ZM29.8301 29.45C29.7574 29.3401 29.6638 29.2456 29.5545 29.172C29.4452 29.0984 29.3224 29.0471 29.1933 29.0211C29.0641 28.995 28.9311 28.9948 28.8018 29.0204C28.6725 29.0459 28.5496 29.0968 28.4401 29.17L26.9901 30.17V29C26.9901 28.7348 26.8847 28.4804 26.6972 28.2929C26.5096 28.1054 26.2553 28 25.9901 28C25.7248 28 25.4705 28.1054 25.283 28.2929C25.0954 28.4804 24.9901 28.7348 24.9901 29V30.13L23.5401 29.13C23.4314 29.0483 23.3072 28.9895 23.175 28.9574C23.0429 28.9253 22.9056 28.9205 22.7715 28.9433C22.6374 28.9661 22.5094 29.016 22.3953 29.0899C22.2811 29.1638 22.1833 29.2603 22.1077 29.3733C22.0321 29.4864 21.9804 29.6136 21.9556 29.7474C21.9309 29.8811 21.9337 30.0185 21.9639 30.1511C21.9941 30.2837 22.051 30.4087 22.1311 30.5186C22.2113 30.6284 22.313 30.7208 22.4301 30.79L24.2001 32L22.4501 33.17C22.333 33.2392 22.2313 33.3316 22.1511 33.4414C22.071 33.5513 22.0141 33.6763 21.9839 33.8089C21.9537 33.9415 21.9509 34.0789 21.9756 34.2126C22.0004 34.3464 22.0521 34.4736 22.1277 34.5867C22.2033 34.6997 22.3011 34.7962 22.4153 34.8701C22.5294 34.944 22.6574 34.9939 22.7915 35.0167C22.9256 35.0395 23.0629 35.0347 23.195 35.0026C23.3272 34.9705 23.4514 34.9117 23.5601 34.83L25.0101 33.83V35C25.0101 35.2652 25.1154 35.5196 25.303 35.7071C25.4905 35.8946 25.7448 36 26.0101 36C26.2753 36 26.5296 35.8946 26.7172 35.7071C26.9047 35.5196 27.0101 35.2652 27.0101 35V33.87L28.4601 34.87C28.6801 35.0001 28.9416 35.041 29.1908 34.9842C29.4401 34.9275 29.6582 34.7775 29.8002 34.565C29.9423 34.3525 29.9977 34.0937 29.9548 33.8417C29.912 33.5897 29.7743 33.3636 29.5701 33.21L27.8001 32L29.5501 30.83C29.7693 30.6834 29.9217 30.4561 29.9741 30.1976C30.0266 29.9392 29.9748 29.6705 29.8301 29.45ZM41.8301 29.45C41.7574 29.3401 41.6638 29.2456 41.5545 29.172C41.4452 29.0984 41.3224 29.0471 41.1933 29.0211C41.0641 28.995 40.9311 28.9948 40.8018 29.0204C40.6725 29.0459 40.5496 29.0968 40.4401 29.17L38.9901 30.17V29C38.9901 28.7348 38.8847 28.4804 38.6972 28.2929C38.5096 28.1054 38.2553 28 37.9901 28C37.7248 28 37.4705 28.1054 37.283 28.2929C37.0954 28.4804 36.9901 28.7348 36.9901 29V30.13L35.5401 29.13C35.4314 29.0483 35.3072 28.9895 35.175 28.9574C35.0429 28.9253 34.9056 28.9205 34.7715 28.9433C34.6374 28.9661 34.5094 29.016 34.3953 29.0899C34.2811 29.1638 34.1833 29.2603 34.1077 29.3733C34.0321 29.4864 33.9804 29.6136 33.9556 29.7474C33.9309 29.8811 33.9337 30.0185 33.9639 30.1511C33.9941 30.2837 34.051 30.4087 34.1311 30.5186C34.2113 30.6284 34.313 30.7208 34.4301 30.79L36.2001 32L34.4501 33.17C34.333 33.2392 34.2313 33.3316 34.1511 33.4414C34.071 33.5513 34.0141 33.6763 33.9839 33.8089C33.9537 33.9415 33.9509 34.0789 33.9756 34.2126C34.0004 34.3464 34.0521 34.4736 34.1277 34.5867C34.2033 34.6997 34.3011 34.7962 34.4153 34.8701C34.5294 34.944 34.6574 34.9939 34.7915 35.0167C34.9256 35.0395 35.0629 35.0347 35.195 35.0026C35.3272 34.9705 35.4514 34.9117 35.5601 34.83L37.0101 33.83V35C37.0101 35.2652 37.1154 35.5196 37.303 35.7071C37.4905 35.8946 37.7448 36 38.0101 36C38.2753 36 38.5296 35.8946 38.7172 35.7071C38.9047 35.5196 39.0101 35.2652 39.0101 35V33.87L40.4601 34.87C40.6801 35.0001 40.9416 35.041 41.1908 34.9842C41.4401 34.9275 41.6582 34.7775 41.8002 34.565C41.9423 34.3525 41.9977 34.0937 41.9548 33.8417C41.912 33.5897 41.7743 33.3636 41.5701 33.21L39.8001 32L41.5501 30.83C41.7693 30.6834 41.9217 30.4561 41.9741 30.1976C42.0266 29.9392 41.9748 29.6705 41.8301 29.45ZM49.0001 30.13L47.5501 29.13C47.4414 29.0483 47.3172 28.9895 47.185 28.9574C47.0529 28.9253 46.9156 28.9205 46.7815 28.9433C46.6474 28.9661 46.5194 29.016 46.4053 29.0899C46.2911 29.1638 46.1933 29.2603 46.1177 29.3733C46.0421 29.4864 45.9904 29.6136 45.9656 29.7474C45.9409 29.8811 45.9437 30.0185 45.9739 30.1511C46.0041 30.2837 46.061 30.4087 46.1411 30.5186C46.2213 30.6284 46.323 30.7208 46.4401 30.79L48.2001 32L46.4501 33.17C46.333 33.2392 46.2313 33.3316 46.1511 33.4414C46.071 33.5513 46.0141 33.6763 45.9839 33.8089C45.9537 33.9415 45.9509 34.0789 45.9756 34.2126C46.0004 34.3464 46.0521 34.4736 46.1277 34.5867C46.2033 34.6997 46.3011 34.7962 46.4153 34.8701C46.5294 34.944 46.6574 34.9939 46.7915 35.0167C46.9256 35.0395 47.0629 35.0347 47.195 35.0026C47.3272 34.9705 47.4514 34.9117 47.5601 34.83L49.0101 33.83V35C49.0101 35.2652 49.1154 35.5196 49.303 35.7071C49.4905 35.8946 49.7448 36 50.0101 36C50.2753 36 50.5296 35.8946 50.7172 35.7071C50.9047 35.5196 51.0101 35.2652 51.0101 35V33.87L52.4601 34.87C52.6801 35.0001 52.9416 35.041 53.1908 34.9842C53.4401 34.9275 53.6582 34.7775 53.8002 34.565C53.9423 34.3525 53.9977 34.0937 53.9548 33.8417C53.912 33.5897 53.7743 33.3636 53.5701 33.21L51.8001 32L53.5501 30.83C53.6671 30.7608 53.7688 30.6684 53.849 30.5586C53.9292 30.4487 53.9861 30.3237 54.0162 30.1911C54.0464 30.0585 54.0492 29.9211 54.0245 29.7874C53.9998 29.6536 53.948 29.5264 53.8724 29.4133C53.7968 29.3003 53.699 29.2038 53.5849 29.1299C53.4707 29.056 53.3427 29.0061 53.2086 28.9833C53.0746 28.9605 52.9373 28.9653 52.8051 28.9974C52.673 29.0295 52.5487 29.0883 52.4401 29.17L50.9901 30.17V29C50.9901 28.7348 50.8847 28.4804 50.6972 28.2929C50.5096 28.1054 50.2553 28 49.9901 28C49.7248 28 49.4705 28.1054 49.283 28.2929C49.0954 28.4804 48.9901 28.7348 48.9901 29L49.0001 30.13Z" fill="#979797"/>
</svg>
