<svg width="261" height="261" viewBox="0 0 261 261" fill="none" xmlns="http://www.w3.org/2000/svg">
<path d="M94.9085 160.159C94.9085 156.6 92.5358 154.227 88.9767 154.227H41.5222C37.9631 154.227 35.5903 156.6 35.5903 160.159C35.5903 163.718 37.9631 166.091 41.5222 166.091H88.9767C92.5358 166.091 94.9085 163.718 94.9085 160.159Z" fill="#44D7B6"/>
<path d="M77.1141 130.5C77.1141 126.941 74.7414 124.568 71.1823 124.568H23.7277C20.1686 124.568 17.7959 126.941 17.7959 130.5C17.7959 134.059 20.1686 136.432 23.7277 136.432H71.1823C74.7414 136.432 77.1141 134.059 77.1141 130.5Z" fill="#44D7B6"/>
<path d="M59.3182 100.841C59.3182 97.2818 56.9455 94.9091 53.3864 94.9091H5.93182C2.37273 94.9091 0 97.2818 0 100.841C0 104.4 2.37273 106.773 5.93182 106.773H53.3864C56.9455 106.773 59.3182 104.4 59.3182 100.841Z" fill="#44D7B6"/>
<path d="M227.778 78.3005L164.901 126.348C158.376 131.094 149.478 131.094 142.953 126.348L80.0756 78.3005C77.7029 76.521 73.5507 76.521 71.7711 79.4869C69.9916 81.8596 69.9916 86.0119 72.9575 87.7914L136.428 135.839C141.767 139.991 148.292 141.771 154.223 141.771C160.155 141.771 167.273 139.991 172.019 135.839L234.896 87.7914C237.269 86.0119 237.862 81.8596 236.082 79.4869C234.303 77.1142 230.151 76.521 227.778 78.3005V78.3005Z" fill="#44D7B6"/>
<path d="M243.204 53.3864H53.3859C49.8268 53.3864 47.4541 55.7591 47.4541 59.3182C47.4541 62.8773 49.8268 65.25 53.3859 65.25H243.204C246.763 65.25 249.136 67.6228 249.136 71.1819V189.818C249.136 193.377 246.763 195.75 243.204 195.75H53.3859C49.8268 195.75 47.4541 198.123 47.4541 201.682C47.4541 205.241 49.8268 207.614 53.3859 207.614H243.204C253.288 207.614 261 199.902 261 189.818V71.1819C261 61.0978 253.288 53.3864 243.204 53.3864Z" fill="#44D7B6"/>
<path d="M191.597 138.211C189.225 140.584 189.225 144.143 191.597 146.516L227.188 182.107C228.375 183.293 230.154 183.886 231.341 183.886C232.527 183.886 234.307 183.293 235.493 182.107C237.866 179.734 237.866 176.175 235.493 173.802L199.902 138.211C197.529 135.839 193.97 135.839 191.597 138.211V138.211Z" fill="#44D7B6"/>
</svg>
