<?xml version="1.0" encoding="utf-8"?>
<!-- Generator: Adobe Illustrator 24.0.3, SVG Export Plug-In . SVG Version: 6.00 Build 0)  -->
<svg version="1.1" id="Layer_1" xmlns="http://www.w3.org/2000/svg" xmlns:xlink="http://www.w3.org/1999/xlink" x="0px" y="0px"
	 viewBox="0 0 64 64" style="enable-background:new 0 0 64 64;" xml:space="preserve">
<path d="M50.8,49.5V24.7c0-0.1-0.1-0.3-0.2-0.4l-6.3-6.2c-0.1-0.1-0.3-0.2-0.4-0.2h-5.3L38,15.1c-0.2-1.4-1.6-2.3-2.9-2.1l-19,3.4
	c-0.7,0.1-1.3,0.5-1.6,1C14,18,13.9,18.7,14,19.4l4.4,25.1c0.2,1.4,1.6,2.3,2.9,2.1l1.6-0.2v3.3c0,1,0.8,1.7,1.7,1.7H49
	C50,51.2,50.8,50.5,50.8,49.5z M45,24.1c-0.3,0-0.5-0.2-0.5-0.5V20l4.3,4.2L45,24.1L45,24.1z M21.1,45.3c-0.7,0.1-1.4-0.4-1.6-1.1
	l-4.4-25.1c-0.1-0.4,0-0.7,0.2-1c0.2-0.2,0.5-0.5,0.9-0.5l19-3.3c0.7-0.1,1.4,0.4,1.6,1.1l0.5,2.6H24.7c-1,0-1.7,0.8-1.7,1.7V45
	L21.1,45.3z M49.6,49.5c0,0.3-0.2,0.5-0.5,0.5H24.7c-0.3,0-0.5-0.2-0.5-0.5c0-6.2,0-23.6,0-29.9c0-0.3,0.2-0.5,0.5-0.5
	c5.5,0,12.9,0,18.6,0v4.4c0,1,0.8,1.7,1.7,1.7h4.6V49.5z"/>
<path d="M45.4,31.7H28.3c-0.4,0-0.6,0.2-0.6,0.6c0,0.4,0.2,0.6,0.6,0.6h17.2c0.4,0,0.6-0.2,0.6-0.6C46,32,45.7,31.7,45.4,31.7z
	 M27.7,27.8c0,0.4,0.2,0.6,0.6,0.6h17.2c0.4,0,0.6-0.2,0.6-0.6s-0.2-0.6-0.6-0.6H28.3C27.9,27.2,27.7,27.5,27.7,27.8z M45.4,36.3
	H28.3c-0.4,0-0.6,0.2-0.6,0.6s0.2,0.6,0.6,0.6h17.2c0.4,0,0.6-0.2,0.6-0.6S45.7,36.3,45.4,36.3z M45.4,40.7H28.3
	c-0.4,0-0.6,0.2-0.6,0.6s0.2,0.6,0.6,0.6h17.2c0.4,0,0.6-0.2,0.6-0.6S45.7,40.7,45.4,40.7z M45.4,45.3H28.3c-0.4,0-0.6,0.2-0.6,0.6
	s0.2,0.6,0.6,0.6h17.2c0.4,0,0.6-0.2,0.6-0.6S45.7,45.3,45.4,45.3z"/>
</svg>
