<svg width="18" height="18" viewBox="0 0 18 18" fill="none" xmlns="http://www.w3.org/2000/svg">
<path fill-rule="evenodd" clip-rule="evenodd" d="M9 0C9.41422 0 9.75 0.335786 9.75 0.75V1.53703C13.2933 1.88883 16.1112 4.70669 16.4629 8.25H17.25C17.6642 8.25 18 8.58578 18 9C18 9.41422 17.6642 9.75 17.25 9.75H16.4629C16.1112 13.2933 13.2933 16.1112 9.75 16.4629V17.25C9.75 17.6642 9.41422 18 9 18C8.58578 18 8.25 17.6642 8.25 17.25V16.4629C4.70669 16.1112 1.88883 13.2933 1.53703 9.75H0.75C0.335786 9.75 0 9.41422 0 9C0 8.58578 0.335786 8.25 0.75 8.25H1.53703C1.88883 4.70669 4.70669 1.88883 8.25 1.53703V0.75C8.25 0.335786 8.58578 0 9 0ZM15 9C15 5.68629 12.3137 3 9 3C5.68629 3 3 5.68629 3 9C3 12.3137 5.68629 15 9 15C12.3137 15 15 12.3137 15 9ZM6.75 9C6.75 7.75733 7.75733 6.75 9 6.75C10.2427 6.75 11.25 7.75733 11.25 9C11.25 10.2427 10.2427 11.25 9 11.25C7.75733 11.25 6.75 10.2427 6.75 9ZM9 5.25C6.92894 5.25 5.25 6.92894 5.25 9C5.25 11.071 6.92894 12.75 9 12.75C11.071 12.75 12.75 11.071 12.75 9C12.75 6.92894 11.071 5.25 9 5.25Z" fill="#979797"/>
</svg>
