<?xml version="1.0" encoding="utf-8"?>
<!-- Generator: Adobe Illustrator 24.0.3, SVG Export Plug-In . SVG Version: 6.00 Build 0)  -->
<svg version="1.1" id="Layer_1" xmlns="http://www.w3.org/2000/svg" xmlns:xlink="http://www.w3.org/1999/xlink" x="0px" y="0px"
	 viewBox="0 0 64 64" style="enable-background:new 0 0 64 64;" xml:space="preserve">
<style type="text/css">
	.st0{fill:none;stroke:#000000;stroke-width:1.2;stroke-linecap:round;}
</style>
<path class="st0" d="M11.1,54c2.8-6.3,8.4-11.2,14.9-12.9c0.6-0.2,1.1-0.7,1.2-1.4c0.1-0.7-0.2-1.3-0.8-1.7c-3.6-2.1-5.9-6-5.9-10.3
	c0-6.5,5.1-11.7,11.4-11.7c6.3,0,11.4,5.3,11.4,11.7c0,4.3-2.3,8.2-5.9,10.3c-0.6,0.3-0.9,1-0.8,1.7c0.1,0.7,0.6,1.2,1.2,1.4
	c6.6,1.8,12.1,6.6,14.9,12.9"/>
</svg>
