<?xml version="1.0" encoding="UTF-8"?>
<svg width="28px" height="26px" viewBox="0 0 28 26" version="1.1" xmlns="http://www.w3.org/2000/svg" xmlns:xlink="http://www.w3.org/1999/xlink">
    <!-- Generator: Sketch 62 (91390) - https://sketch.com -->
    <title>Shape Copy 2</title>
    <desc>Created with Sketch.</desc>
    <g id="-" stroke="none" stroke-width="1" fill="none" fill-rule="evenodd" stroke-linecap="round">
        <g id="Ownership-structure" transform="translate(-956.000000, -311.000000)" fill-rule="nonzero" stroke="#002D36" stroke-width="2">
            <g id="Shape-Copy-2" transform="translate(957.000000, 312.000000)">
                <path d="M2.43360887e-13,24.06412 C1.76103,20.05573 5.22393,17.00028 9.31821,15.86926 C9.7208673,15.7583941 10.0181226,15.4041109 10.068974,14.9744632 C10.1198254,14.5448155 9.91404352,14.1262335 9.54924,13.91727 C7.27248779,12.6109399 5.85803357,10.1227065 5.85582,7.42 C5.85582,3.3284 9.05862,7.10542736e-15 12.99582,7.10542736e-15 C16.93302,7.10542736e-15 20.13582,3.3284 20.13582,7.42 C20.13582,10.11876 18.72057,12.6087 16.4424,13.91727 C16.0780699,14.1265773 15.8726973,14.5449692 15.9235177,14.9743543 C15.974338,15.4037394 16.2711518,15.7579413 16.67343,15.86926 C20.77485,17.00187 24.22857,20.05308 25.99062,24.06465" id="Shape-Copy"></path>
            </g>
        </g>
    </g>
</svg>