<svg width="239" height="248" viewBox="0 0 239 248" fill="none" xmlns="http://www.w3.org/2000/svg">
<path fill-rule="evenodd" clip-rule="evenodd" d="M151.923 30.0789C149.379 34.938 147.253 40.2509 145.543 46.0164C141.745 58.7947 138.473 71.0807 135.728 82.8757C137.329 70.6294 139.219 58.4401 141.4 46.3078C143.753 33.2667 148.578 21.3328 155.875 10.5048C157.798 7.61962 160.411 5.89494 163.717 5.33203C175.018 3.35565 181.353 7.73617 182.722 18.4761C183.748 26.4721 180.85 32.4347 174.025 36.3639C172.499 37.2479 170.92 37.4228 169.291 36.8896C164.345 35.3112 162.401 31.9772 163.461 26.8899C163.558 26.4039 163.484 26.1857 163.238 26.2328C160.472 26.7238 159.792 28.7634 161.199 32.3529C161.854 34.0069 162.855 35.3708 164.201 36.4445C170.033 41.0482 175.413 40.2447 180.339 34.0317C184.81 28.3964 186.065 22.0643 184.101 15.0366C181.273 4.90551 174.277 0.67998 163.112 2.35755C158.996 3.82681 155.703 6.45413 153.235 10.2395C146.683 20.3173 142.227 31.3089 139.867 43.2143C136.613 59.5659 134.326 76.0378 133.002 92.6299C132.995 92.7936 133.005 93.2499 133.032 94C133.298 93.2251 133.619 92.3634 133.994 91.4124C136.701 84.5831 139.025 77.1103 140.963 68.9965C144.948 52.3411 151.308 36.6875 160.044 22.0345C161.445 19.6912 163.367 17.8834 165.803 16.61C170.832 13.9852 173.588 15.2685 174.07 20.4586C174.632 26.3481 171.521 28.8403 164.738 27.9364C164.119 27.857 163.857 28.0021 163.952 28.3741C164.717 31.3858 167.014 32.1991 170.847 30.8129C174.678 29.4267 176.671 25.748 176.824 19.7792C176.895 16.8022 175.848 14.6547 173.681 13.3367C171.529 12.0175 168.978 11.9617 166.026 13.1706C164.482 13.8067 163.112 14.6473 161.919 15.6938C160.887 16.615 159.745 17.9194 158.49 19.6081C155.984 23.0016 153.796 26.4919 151.923 30.0789V30.0789ZM192.009 43.4847C191.963 44.0931 192.088 44.163 192.384 43.6932C196.163 37.9059 200.891 33.11 206.566 29.3056C204.478 34.2918 201.156 38.4106 196.601 41.6621C196.248 41.9247 196.176 42.0283 196.384 41.9717C200.988 40.6778 204.72 37.7228 207.579 33.1064C209.457 30.0718 209.474 27.7034 207.629 26C202.105 29.4261 197.445 33.8244 193.653 39.1973C192.676 40.5911 192.128 42.0198 192.009 43.4847V43.4847ZM45.2603 53.9592C44.0795 55.9783 43.4966 58.4793 43.5141 61.466C43.5402 66.7252 46.0189 70.2089 50.95 71.9208C53.1148 72.6825 54.8561 72.8997 56.1764 72.5726C57.1517 72.3216 57.7234 71.8883 57.8916 71.2703C58.1444 70.3887 58.1257 69.5883 57.8355 68.8691C57.6337 68.3622 57.4382 68.0688 57.2501 67.9901C57.1093 67.9352 56.8627 67.864 56.509 67.7778C55.4801 67.5156 54.4638 67.1186 53.4574 66.5854C52.4485 66.0385 52.1508 65.0908 52.5618 63.741C52.8695 62.7184 53.4885 62.0329 54.4202 61.6833C55.2809 61.3586 56.2898 61.3636 57.4469 61.697C60.0227 62.4337 61.9633 64.0657 63.2686 66.5954C64.3797 68.793 64.2601 70.8245 62.9099 72.6862C58.3972 78.8132 52.7897 79.4613 46.0886 74.6303C37.5142 68.4471 36.7183 61.2787 43.7021 53.1227C48.3655 47.6749 54.2508 44.9666 61.3592 45.0003C71.5827 45.0428 79.2143 49.3468 84.2538 57.9112C90.1989 68.0326 93.9306 79.1004 95.4452 91.116C95.8724 94.506 97.0582 97.4678 99 100C97.1765 98.0172 95.8064 95.7721 94.8897 93.2649C91.2078 83.2234 86.8857 72.6063 81.9221 61.4161C79.3912 55.7223 75.5523 51.6705 70.4082 49.2606C65.1233 46.7946 59.177 46.4113 52.5693 48.1082C49.1427 49.5391 46.7077 51.4894 45.2603 53.9592V53.9592ZM48.2071 55.7481C48.9759 53.6883 50.4376 52.3032 52.5922 51.5929C64.2322 47.6904 73.2859 50.8077 79.7547 60.945C82.846 65.7774 85.0889 70.9632 86.4846 76.5023C88.5447 84.6263 91.8811 92.062 96.4938 98.8095C97.3061 99.9873 98.3125 100.898 99.5117 101.54C102.647 103.241 103.669 103.455 102.577 102.185C102.602 102.151 102.572 102.046 102.489 101.867C101.032 98.8034 99.9496 95.545 99.2393 92.0902C97.2427 82.2781 94.3827 72.7482 90.657 63.5017C84.9408 49.3356 74.1119 42.5108 58.1727 43.0273C54.4855 43.7965 51.0745 45.1631 47.9371 47.1297C44.7849 49.0976 42.0916 52.5167 39.8549 57.3872C35.9414 65.8976 38.2203 72.5912 46.6932 77.4653C51.0969 79.9901 55.6573 80.4637 60.3733 78.886C65.1328 77.3022 67.2351 74.2179 66.6816 69.6321C65.8307 62.5582 61.789 59.4311 54.5552 60.2481C52.9504 60.4334 51.9428 61.2909 51.5298 62.8208C50.2311 67.609 52.2973 69.7216 57.7298 69.1585L57.7522 69.1561C57.1663 70.6074 56.0044 70.9963 54.2678 70.3215C47.5552 67.6961 45.5338 62.8379 48.2071 55.7481V55.7481ZM86 26C85.937 25.9622 85.8703 25.9101 85.8036 25.8423C79.86 18.8235 75.5926 10.8769 73 2C79.5179 8.56417 83.8508 16.5642 86 26V26ZM83.1556 9.19341C80.7782 4.66253 77.5179 1.59806 73.3734 0C72.1021 0.699684 71.7125 1.8126 72.2083 3.33996C74.9941 11.9641 79.1929 19.8325 84.8035 26.9452C88.2728 31.3371 89.5913 30.9933 88.7579 25.9139C87.7735 19.9995 85.906 14.4264 83.1556 9.19341V9.19341ZM126.52 154C128.977 156.5 131.291 158.981 133.464 161.445C135.619 163.896 137.822 164.397 140.074 162.949C142.324 161.486 145.817 159.304 150.555 156.405C149.818 157.277 149.029 158.096 148.189 158.863C145.281 161.574 142.887 164.258 141.005 166.917C145.453 167.469 149.785 168.682 154 170.556C150.189 171.135 146.278 171.748 142.269 172.397C142.038 172.429 141.882 172.524 141.8 172.683C139.403 177.446 137.37 182.551 135.7 188C135.661 187.828 135.648 187.666 135.656 187.517C135.862 182.89 135.768 178.408 135.378 174.069C135.134 174.013 134.904 174.001 134.687 174.029C129.089 174.91 125.194 175.247 123 175.041C125.644 173.553 128.347 172.288 131.11 171.245C131.615 171.057 131.835 170.834 131.771 170.576C130.233 165.149 128.482 159.622 126.52 154V154ZM130.299 156.071C128.004 153.112 125.701 150.756 123.394 149C122.564 150.399 122.481 152.227 123.143 154.481C124.661 159.65 126.724 164.534 129.33 169.135C125.62 170.861 121.956 172.983 118.339 175.502C117.893 175.81 117.887 176.032 118.319 176.163C122.965 177.62 127.771 177.857 132.735 176.87C132.665 177.977 132.609 179.083 132.566 180.187C132.4 184.381 132.648 188.587 133.311 192.802C133.499 192.981 133.618 193.039 133.667 192.974C137.201 188.651 139.627 183.407 140.944 177.243C141.062 176.699 141.275 176.364 141.582 176.235C146.631 174.139 152.104 172.873 158 172.435C154.863 168.506 150.292 166.249 144.287 165.662C148.129 162.307 150.799 159.344 152.295 156.771C153.777 154.201 153.371 153.392 151.077 154.343C148.784 155.295 146.282 156.727 143.573 158.642C140.863 160.556 138.547 161.342 136.623 160.999C134.699 160.656 132.591 159.013 130.299 156.071V156.071ZM145.829 212.146C146.212 208.593 145.668 205.583 144.197 203.113C145.504 202.815 146.802 202.444 148.091 202C148.918 208.458 148.387 214.57 146.502 220.337C144.615 226.105 144.127 230.786 145.038 234.383C145.932 237.966 147.469 239.939 149.647 240.304C149.662 240.316 149.901 240.365 150.361 240.449L150.358 240.428C150.61 240.466 150.826 240.511 151.006 240.559L151.048 240.554C151.247 239.64 151.586 238.819 152.069 238.088C152.383 237.616 152.828 237.098 153.405 236.531C153.741 236.218 154.331 236.078 155.175 236.109C155.989 236.13 156.575 236.293 156.934 236.598C158.762 238.148 159.377 239.673 158.779 241.173C158.206 242.639 156.508 244.041 153.686 245.374C151.683 246.329 149.84 246.191 148.156 244.961C142.542 240.847 140.768 235.111 142.834 227.754C144.267 222.609 145.266 217.406 145.829 212.146V212.146ZM115.297 195.871C115.239 195.335 115.143 194.798 115.008 194.259C111.106 177.964 108.429 161.339 106.976 144.381C106.747 141.844 106.422 139.753 106 138.107C122.954 142.022 139.236 139.856 154.845 131.61C155.346 131.339 155.61 131.136 155.636 131C155.845 133.495 156.225 136.364 156.776 139.607C159.504 155.514 162.245 171.465 165 187.456C164.493 187.787 163.623 188.746 162.391 190.333C159.657 193.82 156.554 196.366 153.082 197.97C149.848 199.455 146.759 200.525 143.814 201.18C133.39 203.221 123.885 201.452 115.297 195.871V195.871ZM103.131 134.343C102.107 132.669 101.778 131.043 102.145 129.465C102.511 127.872 102.835 127.087 103.12 127.107C103.355 127.21 103.608 127.318 103.874 127.431C110.042 130.005 116.483 131.17 123.193 130.929C136.058 130.49 146.575 125.847 154.745 117C155.66 118.299 156.352 119.823 156.822 121.571C157.253 123.13 157.645 124.68 158 126.22C156.239 127.57 154.863 128.536 153.875 129.12C138.334 138.151 121.932 140.293 104.67 135.549C104.515 135.494 104.001 135.093 103.131 134.343V134.343ZM126.463 118.169C128.541 117.838 130.641 117.572 132.766 117.371C137.391 116.538 142.03 116.082 146.68 116.005C148.99 115.962 151.097 116.189 153 116.687C151.184 119.219 148.858 121.219 146.021 122.688C131.532 130.139 117.193 130.993 103 125.251C103.082 125.194 103.172 125.144 103.271 125.099C110.092 122.017 117.224 119.805 124.665 118.463C125.17 119.914 125.691 121.356 126.225 122.787C126.411 123.293 126.517 123.416 126.542 123.154C126.667 121.51 126.641 119.848 126.463 118.169V118.169ZM110 40C110.626 43.46 111.382 46.962 112.267 50.5047C113.354 54.8309 114.297 59.1683 115.095 63.5168C117.36 75.7404 119.662 87.9023 122 100C121.677 98.9104 121.383 97.8097 121.119 96.6979C117.081 80.2949 113.645 63.7401 110.809 47.036C110.417 44.6915 110.146 42.3458 110 40V40ZM106.961 28C107.103 29.2742 107.309 32.3399 107.579 37.197C107.995 45.0099 109.528 56.5231 112.178 71.7378C114.829 86.9525 118.611 101.515 123.524 115.428C115.001 117.085 108.929 118.976 105.303 121.102C101.664 123.23 99.9223 124.595 100.078 125.199C98.4469 128.319 98.6668 131.651 100.737 135.194C101.124 135.856 101.801 136.352 102.768 136.682C102.902 138.226 103.117 140.034 103.412 142.106C105.868 159.191 108.601 176.12 111.611 192.892C112.073 195.433 112.975 196.94 114.318 197.413C116.659 199.327 119.322 200.76 122.306 201.711C129.485 203.983 136.308 204.564 142.777 203.452C142.925 205.53 143.11 207.668 143.332 209.87C143.864 215.018 143.281 220.11 141.581 225.143C139.545 231.219 139.718 237.122 142.099 242.855C143.071 245.207 144.805 246.699 147.3 247.329C155.768 249.456 160.496 246.528 161.485 238.54C161.669 237.043 161.059 236.048 159.653 235.553C154.244 233.71 151.092 234.94 150.201 239.24C147.341 237.558 146.185 235.06 146.734 231.743C147.865 225.031 149.023 218.3 150.208 211.551C150.877 207.802 150.489 204.545 149.045 201.781C153.683 200.113 157.577 197.935 160.724 195.249C163.817 192.601 165.397 190.818 165.467 189.901C165.466 189.886 165.464 189.873 165.461 189.858C166.177 186.012 166.179 181.96 165.47 177.697C163.353 165.221 161.628 152.73 160.296 140.223C159.865 136.042 158.945 132.254 157.534 128.86C157.971 128.579 158.251 128.28 158.372 127.967C158.415 127.946 158.495 127.66 158.614 127.109C158.83 126.172 158.977 125.282 159.056 124.439L159.053 124.417C159.413 119.92 157.717 116.454 153.966 114.015C147.637 112.743 140.269 112.81 131.861 114.213C129.806 114.416 127.768 114.691 125.747 115.038C125.721 114.952 125.703 114.873 125.693 114.8C125.11 106.847 123.689 96.8804 121.43 84.9C119.158 72.9208 117.024 62.4108 115.029 53.3699C113.02 44.3303 110.33 35.8741 106.961 28V28ZM22.0027 149.036C21.9439 145.71 22.8542 142.665 24.731 139.901C31.0965 130.517 40.1579 124.973 51.9125 123.265C60.8813 121.203 69.5763 121.662 78 124.644C69.7389 123.202 61.9454 123.092 54.6208 124.316C46.8898 125.61 39.744 128.385 33.1834 132.644C30.9352 134.092 29.1785 135.983 27.9131 138.318C26.4177 141.045 25.9938 143.768 26.6403 146.489C26.8716 147.434 27.3942 148.113 28.2095 148.528C33.4072 151.108 38.865 153.286 44.5804 155.061C45.6507 155.38 46.0683 156.058 45.8358 157.096C44.4879 163.153 40.3067 165.224 33.2922 163.312C25.8888 161.272 22.1252 156.514 22.0027 149.036V149.036ZM85.9525 127.206C85.9974 127.095 86.0099 127.026 85.9924 126.998C75.7498 120.331 64.1546 118.428 51.2092 121.288C38.0307 123.086 28.1758 129.355 21.642 140.095C18.3321 145.538 18.1326 150.977 21.0411 156.411C25.3633 164.426 32.0118 167.416 40.9865 165.383C43.1333 164.894 44.8524 163.761 46.1427 161.981C49.4838 157.327 48.2496 154.093 42.4401 152.277C38.3211 150.996 34.2695 149.614 30.2864 148.134C29.1619 147.718 28.5124 146.915 28.3391 145.724C27.6385 140.708 29.8027 136.807 34.833 134.022C46.1365 127.758 58.3975 125.434 71.6159 127.048C76.6711 127.663 81.4496 127.716 85.9525 127.206V127.206ZM18 83.9803C17.0593 84.0205 16.0819 83.9992 15.0679 83.9163C6.79576 83.1802 2.10686 78.9861 1 71.3339C1.7208 70.9495 2.4184 70.8968 3.09522 71.1769C9.43586 73.826 14.4045 78.093 18 83.9803V83.9803ZM2.86613 79.3036C8.127 84.4749 14.8285 87.0406 22.9706 86.9995C23.7964 86.9959 24.1257 86.6734 23.9572 86.0332C23.5572 84.5305 22.6619 82.8901 21.2728 81.1095C16.2344 74.7171 9.65896 71.0135 1.55027 70C-0.888515 72.9547 -0.449894 76.0567 2.86613 79.3036V79.3036ZM225.432 81.8335C223.486 80.3285 221.357 79.734 219.046 80.0476C201.35 82.409 185.001 88.7552 170 99.0862C170.093 98.9981 170.185 98.9187 170.28 98.8457C183.004 87.6394 197.382 79.5439 213.415 74.5603C225.156 72.3501 232.688 76.6787 236.009 87.5475C237.814 93.4503 237.153 98.9603 234.026 104.079C231.245 108.67 227.961 109.23 224.173 105.756C220.813 102.705 220.712 99.7865 223.869 97.0032C224.603 96.3634 225.353 95.6846 226.121 94.9654C231.059 90.3497 230.829 85.9732 225.432 81.8335V81.8335ZM225.238 92.8531C224.415 93.6063 223.632 94.3309 222.891 95.0267C217.887 99.6849 218.249 104.334 223.978 108.978C226.256 110.807 228.726 110.713 231.386 108.698C238.543 103.269 240.654 95.9661 237.721 86.7907C233.938 74.9796 225.701 70.2426 213.008 72.5786C194.105 78.6522 177.328 88.6508 162.675 102.574C159.831 105.3 157.94 107.976 157 110.604C158.025 111.148 158.952 111.131 159.783 110.557C163.088 108.214 166.58 105.675 170.258 102.939C184.002 92.7556 199.182 85.8313 215.799 82.1687C219.795 81.278 223.057 82.2886 225.582 85.1992C227.936 87.925 227.821 90.4771 225.238 92.8531V92.8531Z" fill="#44D7B6"/>
</svg>
