<?xml version="1.0" encoding="UTF-8"?>
<svg width="30px" height="30px" viewBox="0 0 30 30" version="1.1" xmlns="http://www.w3.org/2000/svg" xmlns:xlink="http://www.w3.org/1999/xlink">
    <!-- Generator: Sketch 62 (91390) - https://sketch.com -->
    <title>Focus</title>
    <desc>Created with Sketch.</desc>
    <g id="-" stroke="none" stroke-width="1" fill="none" fill-rule="evenodd">
        <g id="Focus" transform="translate(1.000000, 1.000000)" fill="#000000" fill-rule="nonzero" stroke="#000000">
            <path d="M27.4166667,13.4166667 L23.275,13.4166667 C22.9833333,8.75 19.25,5.01666667 14.5833333,4.725 L14.5833333,0.583333333 C14.5833333,0.233333333 14.35,0 14,0 C13.65,0 13.4166667,0.233333333 13.4166667,0.583333333 L13.4166667,4.725 C8.75,5.01666667 5.01666667,8.75 4.725,13.4166667 L0.583333333,13.4166667 C0.233333333,13.4166667 0,13.65 0,14 C0,14.35 0.233333333,14.5833333 0.583333333,14.5833333 L4.725,14.5833333 C5.01666667,19.25 8.75,22.9833333 13.4166667,23.275 L13.4166667,27.4166667 C13.4166667,27.7666667 13.65,28 14,28 C14.35,28 14.5833333,27.7666667 14.5833333,27.4166667 L14.5833333,23.275 C19.25,22.9833333 22.9833333,19.25 23.275,14.5833333 L27.4166667,14.5833333 C27.7666667,14.5833333 28,14.35 28,14 C28,13.65 27.7666667,13.4166667 27.4166667,13.4166667 Z M22.1083333,13.4166667 L14.5833333,13.4166667 L14.5833333,5.89166667 C18.6083333,6.125 21.875,9.39166667 22.1083333,13.4166667 Z M13.4166667,5.89166667 L13.4166667,13.4166667 L5.89166667,13.4166667 C6.125,9.39166667 9.39166667,6.125 13.4166667,5.89166667 Z M5.89166667,14.5833333 L13.4166667,14.5833333 L13.4166667,22.1083333 C9.39166667,21.875 6.125,18.6083333 5.89166667,14.5833333 Z M14.5833333,22.1083333 L14.5833333,14.5833333 L22.1083333,14.5833333 C21.875,18.6083333 18.6083333,21.875 14.5833333,22.1083333 Z" id="Shape"></path>
        </g>
    </g>
</svg>