<svg id="Layer_1" data-name="Layer 1" xmlns="http://www.w3.org/2000/svg" viewBox="0 0 28 28"><defs><style>.cls-1{fill:#000000;fill-rule:evenodd;}</style></defs><path class="cls-1" d="M15.43,12.42a1.91,1.91,0,0,0-1.4-.57,2.09,2.09,0,0,0-1.45.57A2.12,2.12,0,0,0,12,13.88a1.9,1.9,0,0,0,.57,1.4,2.09,2.09,0,0,0,1.45.57,2,2,0,0,0,2-2A2.12,2.12,0,0,0,15.43,12.42ZM14,9.84A3.83,3.83,0,0,1,16.84,11,3.89,3.89,0,0,1,18,13.88a4,4,0,0,1-4,4,3.89,3.89,0,0,1-2.86-1.16A3.82,3.82,0,0,1,10,13.88,4,4,0,0,1,14,9.84Zm9.71,4.74a1.15,1.15,0,0,0,0-1.47Q18.94,7.84,14,7.84T4.3,13.17a1,1,0,0,0,0,1.41A16.77,16.77,0,0,0,8,17.85a11.09,11.09,0,0,0,6.06,2Q18.94,19.84,23.73,14.58Z"/></svg>