<svg width="96" height="41" viewBox="0 0 96 41" fill="none" xmlns="http://www.w3.org/2000/svg">
<path fill-rule="evenodd" clip-rule="evenodd" d="M95.9985 20.7722C95.9985 13.9194 92.6948 8.51221 86.3806 8.51221C80.0396 8.51221 76.2031 13.9194 76.2031 20.7186C76.2031 28.7759 80.7323 32.8447 87.2331 32.8447C90.4036 32.8447 92.8014 32.122 94.6131 31.1048V25.7511C92.8014 26.6612 90.7233 27.2234 88.0857 27.2234C85.5013 27.2234 83.2101 26.3132 82.917 23.1546H95.9452C95.9452 22.8066 95.9985 21.4146 95.9985 20.7722ZM82.8371 18.2292C82.8371 15.2043 84.6754 13.9462 86.3539 13.9462C87.9791 13.9462 89.7109 15.2043 89.7109 18.2292H82.8371Z" fill="#6772E5"/>
<path fill-rule="evenodd" clip-rule="evenodd" d="M65.9179 8.51221C63.3069 8.51221 61.6285 9.74356 60.696 10.6001L60.3496 8.9405H54.4883V40.1525L61.1489 38.7338L61.1755 31.1583C62.1347 31.8543 63.5467 32.8447 65.8913 32.8447C70.6603 32.8447 75.003 28.9901 75.003 20.5045C74.9764 12.7416 70.5803 8.51221 65.9179 8.51221ZM64.3194 26.9557C62.7475 26.9557 61.815 26.3935 61.1755 25.6976L61.1489 15.7665C61.8416 14.9902 62.8007 14.4548 64.3194 14.4548C66.7438 14.4548 68.4223 17.1852 68.4223 20.6919C68.4223 24.2788 66.7705 26.9557 64.3194 26.9557Z" fill="#6772E5"/>
<path fill-rule="evenodd" clip-rule="evenodd" d="M52.0115 5.48734V0.0533447L45.3242 1.47207V6.93284L52.0115 5.48734Z" fill="#6772E5"/>
<path d="M52.0115 8.96716H45.3242V32.3896H52.0115V8.96716Z" fill="#6772E5"/>
<path fill-rule="evenodd" clip-rule="evenodd" d="M38.1576 10.9481L37.7313 8.96725H31.9766V32.3897H38.6372V16.516C40.2091 14.4548 42.8733 14.8295 43.6993 15.124V8.96725C42.8467 8.64602 39.7295 8.05712 38.1576 10.9481Z" fill="#6772E5"/>
<path fill-rule="evenodd" clip-rule="evenodd" d="M24.836 3.15857L18.3352 4.55053L18.3086 25.9921C18.3086 29.9538 21.2659 32.8716 25.209 32.8716C27.3937 32.8716 28.9922 32.47 29.8714 31.9882V26.5542C29.0189 26.9022 24.8094 28.1335 24.8094 24.1718V14.669H29.8714V8.96733H24.8094L24.836 3.15857Z" fill="#6772E5"/>
<path fill-rule="evenodd" clip-rule="evenodd" d="M6.82649 15.7665C6.82649 14.7225 7.67905 14.321 9.0911 14.321C11.1159 14.321 13.6736 14.9366 15.6984 16.0341V9.74356C13.4871 8.8602 11.3024 8.51221 9.0911 8.51221C3.68267 8.51221 0.0859375 11.3497 0.0859375 16.0877C0.0859375 23.4758 10.2101 22.298 10.2101 25.4834C10.2101 26.7148 9.14438 27.1163 7.6524 27.1163C5.44108 27.1163 2.61697 26.2062 0.379004 24.9748V31.3457C2.85676 32.4164 5.36115 32.8715 7.6524 32.8715C13.194 32.8715 17.0039 30.1144 17.0039 25.3228C16.9773 17.3458 6.82649 18.7645 6.82649 15.7665Z" fill="#6772E5"/>
</svg>
