<?xml version="1.0" encoding="UTF-8"?>
<svg width="24px" height="24px" viewBox="0 0 24 24" version="1.1" xmlns="http://www.w3.org/2000/svg" xmlns:xlink="http://www.w3.org/1999/xlink">
    <!-- Generator: Sketch 62 (91390) - https://sketch.com -->
    <title>Zoom (1)</title>
    <desc>Created with Sketch.</desc>
    <g id="-" stroke="none" stroke-width="1" fill="none" fill-rule="evenodd">
        <g id="Ownership-structure-Copy-4" transform="translate(-121.000000, -147.000000)" fill="#000000" fill-rule="nonzero">
            <g id="Zoom-(1)" transform="translate(120.000000, 146.000000)">
                <path d="M24.21,22.79 L18.74,17.32 C22.1097971,13.1937032 21.6530334,7.15004823 17.7013466,3.57709009 C13.7496598,0.00413195451 7.6906849,0.156514957 3.92359993,3.92359993 C0.156514957,7.6906849 0.00413195451,13.7496598 3.57709009,17.7013466 C7.15004823,21.6530334 13.1937032,22.1097971 17.32,18.74 L22.79,24.21 C22.9777666,24.3993127 23.2333625,24.5057983 23.5,24.5057983 C23.7666375,24.5057983 24.0222334,24.3993127 24.21,24.21 C24.3993127,24.0222334 24.5057983,23.7666375 24.5057983,23.5 C24.5057983,23.2333625 24.3993127,22.9777666 24.21,22.79 Z M3,11 C3,6.581722 6.581722,3 11,3 C15.418278,3 19,6.581722 19,11 C19,15.418278 15.418278,19 11,19 C8.87826808,19 6.84343678,18.1571453 5.34314575,16.6568542 C3.84285472,15.1565632 3,13.1217319 3,11 Z" id="Shape"></path>
                <path d="M17,11 C17,10.4477153 16.5522847,10 16,10 L6,10 C5.44771525,10 5,10.4477153 5,11 C5,11.5522847 5.44771525,12 6,12 L16,12 C16.5522847,12 17,11.5522847 17,11 Z" id="Path"></path>
            </g>
        </g>
    </g>
</svg>